<?xml version="1.0" encoding="utf-8"?>
<svg version="1.1" xmlns:xlink="http://www.w3.org/1999/xlink" width="21px" height="20px" xmlns="http://www.w3.org/2000/svg">
  <g transform="matrix(1 0 0 1 -14 -6 )">
    <path d="M 3.565448120769247 5.0000627833333535  L 6.2250927899999455 2.2559853333333515  L 5.082843683076922 1.0774739666666733  L 1.0443819507692593 5.244140483333316  C 0.7289584130769614 5.569577333333342  0.7289583969231025 6.097214816666678  1.0443818538461056 6.422651750000009  L 5.082843683076922 10.58931828333333  L 6.2250927899999455 9.410807300000007  L 3.565448120769247 6.66672945000002  L 12.923198561538541 6.66672945000002  C 15.599656153846135 6.66672945000002  17.769352407692384 8.90530506666669  17.769352407692384 11.66672945000002  C 17.769352407692384 14.42815383333335  15.599656153846135 16.666730166666685  12.923198561538541 16.666730166666685  L 4.8462759369231465 16.666730166666685  L 4.8462759369231465 18.333396833333353  L 12.923198561538541 18.333396833333353  C 16.491807553846186 18.333396833333353  19.384737023077 15.34862750000002  19.384737023077 11.66672945000002  C 19.384737023077 7.9848313333333465  16.491807553846186 5.0000627833333535  12.923198561538541 5.0000627833333535  L 3.565448120769247 5.0000627833333535  Z " fill-rule="nonzero" fill="#5d5d5d" stroke="none" fill-opacity="0.8980392156862745" transform="matrix(1 0 0 1 14 6 )" />
  </g>
</svg>