<?xml version="1.0" standalone="no"?><!DOCTYPE svg PUBLIC "-//W3C//DTD SVG 1.1//EN" "http://www.w3.org/Graphics/SVG/1.1/DTD/svg11.dtd"><svg t="1739069814859" class="icon" viewBox="0 0 1024 1024" version="1.1" xmlns="http://www.w3.org/2000/svg" p-id="7398" xmlns:xlink="http://www.w3.org/1999/xlink" width="200" height="200"><path d="M989.05907129 703.30464763l-278.08678345 276.37650879 0.03585278 0.2306206-124.66884814 21.97388013-1.34593286 0.90116454 21.40120459-126.91110058 0.75097046 0.14050415-0.30038819-0.30329516L885.16158154 599.10870769l30.96226977 31.11246386-0.07945751 0.07945752 57.34894921 57.12704957-0.06782959 0.06782959 15.73258887 15.8101084zM646.7967749 897.89029899l-8.88373828 50.69292848 51.20068139-9.06300221 184.26392579-183.12923363-42.05434571-41.89155469L646.7967749 897.89029899zM885.80886963 660.34816837l-24.25101636 24.10179127 42.05434571 41.89252368 24.25004736-24.10276026-42.05337671-41.89155469z m31.98649658-187.96354541h-0.39922559L509.88080982 895.92905485v1.32073901h-1.27035132l-0.27713233 0.28779127-0.29941918-0.28779127H267.98111254c-33.61149975 0-60.859615-27.24811523-60.85961498-60.86058398v-76.65228149H95.8015127c-33.61246875 0-60.86058398-27.24811523-60.86058399-60.86058399V10.54166667h649.81522266c33.61343775 0 60.86058398 27.24811523 60.86058398 60.859615v76.65325047h111.31998486c33.61246875 0 60.86058398 27.24811523 60.86058399 60.859615v262.61969898l0.21705469 0.20930272-0.21705469 0.22577564v0.41666748zM684.75808936 71.40128167H95.8015127V698.8763444h111.31998486V148.05453215H684.75712036V71.40128167z m172.18056884 137.51286547H267.98014355v627.47506274h214.73007056l374.22553711-388.94455811V208.91414714zM346.94444507 632.62427702h202.22423218v64.7113667H346.94541406v-64.7113667z m-1e-8-158.31426269h404.44943336v64.71233568H346.94541406V474.31195231z m0-158.31232471h404.44943336v64.7113667H346.94541406V315.99768962z" p-id="7399" fill="#515151"></path></svg>