<?xml version="1.0" standalone="no"?><!DOCTYPE svg PUBLIC "-//W3C//DTD SVG 1.1//EN" "http://www.w3.org/Graphics/SVG/1.1/DTD/svg11.dtd"><svg t="1737686488375" class="icon" viewBox="0 0 1024 1024" version="1.1" xmlns="http://www.w3.org/2000/svg" p-id="34116" xmlns:xlink="http://www.w3.org/1999/xlink" width="200" height="200"><path d="M731.136 1018.88H77.824c-39.936 0-71.68-32.256-72.192-72.192V77.312c0-39.936 32.256-71.68 72.192-72.192h653.312c39.936 0 71.68 32.256 72.192 72.192v140.8h-64.512v-140.8c0-4.096-3.584-7.168-7.68-7.68H77.824c-4.096 0-7.168 3.584-7.68 7.68v869.376c0 4.608 3.072 8.192 7.68 8.192H731.136c4.608 0 8.192-3.072 8.192-7.68V814.592H803.84v130.56c0.512 40.448-31.744 73.216-72.192 73.728h-0.512z" fill="#515151" p-id="34117"></path><path d="M384.512 620.032H245.248c-17.408 0-31.744-14.336-31.744-31.744 0.512-17.408 14.336-31.232 31.744-31.744H384c17.408 0 31.744 14.336 31.744 31.744 0.512 16.896-12.8 31.232-29.696 31.744h-1.536zM1016.832 368.64c-12.288-84.992-91.136-144.384-176.128-132.096-7.168 1.536-13.824 5.632-18.432 11.776L741.376 349.184 504.32 640.512c-3.072 4.096-5.632 8.704-6.656 13.312l-51.2 211.968c-3.584 11.776 0 24.576 10.24 31.744 5.12 4.608 11.776 6.656 18.432 6.656 3.584 0 6.656-1.536 11.776-8.192l199.68-86.016c5.632-2.048 10.24-5.12 13.312-10.24l311.808-408.576c5.12-6.144 7.168-14.848 5.12-22.528zM547.84 699.392c17.92-1.024 35.328 4.608 49.152 15.872 15.872 13.312 26.624 31.744 30.208 51.712v2.56l-107.52 46.08 28.16-116.224z m132.096 23.552c-9.728-23.04-25.6-43.008-46.08-57.856-15.872-11.264-33.792-19.456-52.736-24.064l196.608-240.64c21.504-0.512 43.008 5.632 60.416 18.944 17.408 12.288 29.696 30.208 34.816 51.2l-193.024 252.416z m235.52-307.712c-10.24-18.432-24.576-34.304-41.472-46.592-15.36-11.264-32.256-19.968-50.688-25.088l34.304-43.008c41.984-0.512 79.36 27.136 92.16 67.072l-34.304 47.616z m-365.056 33.792H245.248c-17.408 0-31.744-14.336-31.744-31.744 0.512-17.408 14.336-31.232 31.744-31.744h304.64c17.408 0 31.744 14.336 31.744 31.744 0.512 16.896-12.8 31.232-29.696 31.744h-1.536z m0-165.888H245.248c-17.408 0-31.744-14.336-31.744-31.744 1.024-16.896 14.848-30.72 31.744-31.232h304.64c17.408 0 31.744 14.336 31.744 31.744 0.512 16.896-12.8 31.232-29.696 31.744h-2.048v-0.512z" fill="#515151" p-id="34118"></path></svg>