<?xml version="1.0" standalone="no"?><!DOCTYPE svg PUBLIC "-//W3C//DTD SVG 1.1//EN" "http://www.w3.org/Graphics/SVG/1.1/DTD/svg11.dtd"><svg t="1740014433755" class="icon" viewBox="0 0 1024 1024" version="1.1" xmlns="http://www.w3.org/2000/svg" p-id="2661" width="20" height="20" xmlns:xlink="http://www.w3.org/1999/xlink"><path d="M936.39 829.32l-89.86-172.57c-5.99-11.51-15.55-21.05-27.64-27.6-14.02-7.59-27.75-9.19-36.79-9.19H675.8c-17.67 0-32 14.33-32 32s14.33 32 32 32h106.26c0.87 0 3.84 0.11 6.37 1.47 0.81 0.44 1.26 0.84 1.41 1.02L862.5 826H161.8l72.67-139.55c0.61-0.71 3.42-2.49 7.84-2.49h115.03c17.67 0 32-14.33 32-32s-14.33-32-32-32H242.3c-27.56 0-52.89 14.44-64.53 36.79L87.91 829.32c-6.59 12.66-6.1 27.51 1.31 39.72 7.84 12.92 22.51 20.95 38.27 20.95h769.32c15.77 0 30.43-8.03 38.27-20.95 7.42-12.21 7.9-27.06 1.31-39.72zM616.94 379.02c4.13-26.45-2.34-52.94-18.22-74.59-16.1-21.96-39.9-36.31-66.99-40.42-55.41-8.4-107.47 29.38-116.04 84.22-4.13 26.45 2.34 52.94 18.22 74.59 16.1 21.96 39.9 36.32 66.99 40.42 5.2 0.79 10.35 1.17 15.46 1.17 49.33 0 92.82-35.69 100.58-85.39z m-106.45 20.95c-10.14-1.54-19.01-6.86-24.97-14.99-5.74-7.83-8.08-17.37-6.6-26.87 2.84-18.21 18.98-31.26 37.35-31.26 1.93 0 3.89 0.15 5.86 0.44 10.14 1.54 19.01 6.86 24.97 14.99 5.74 7.83 8.08 17.37 6.6 26.87-3.14 20.13-22.54 33.95-43.21 30.82z" p-id="2662" fill="#515151"></path><path d="M459.92 692.88c8.05 8.27 15.01 15.42 20.3 21.22 8.85 9.69 20.85 15.3 33.77 15.8 0.63 0.02 1.27 0.04 1.9 0.04 12.77 0 25.06-4.96 34.78-14.09 3.09-2.9 6.84-6.32 11.17-10.27 28.03-25.55 74.94-68.31 115.81-127.09 50.87-73.16 76.67-149.22 76.67-226.04 0-62.85-24.82-121.91-69.88-166.3-44.94-44.27-104.65-68.64-168.13-68.64-63.49 0-123.2 24.38-168.13 68.64-45.07 44.39-69.88 103.45-69.88 166.3 0 67.17 23.36 136.73 69.44 206.75 37.44 56.89 82.42 103.1 112.18 133.68z m56.39-511.38c95.95 0 174.02 76.69 174.02 170.94 0 149.43-120.25 259.03-171.59 305.83l-1.71 1.56c-3.48-3.62-7.23-7.47-11.24-11.6-57.14-58.7-163.49-167.97-163.49-295.79 0-94.25 78.06-170.94 174.01-170.94z" p-id="2663" fill="#515151"></path></svg>