<?xml version="1.0" standalone="no"?><!DOCTYPE svg PUBLIC "-//W3C//DTD SVG 1.1//EN" "http://www.w3.org/Graphics/SVG/1.1/DTD/svg11.dtd"><svg t="1737686548670" class="icon" viewBox="0 0 1024 1024" version="1.1" xmlns="http://www.w3.org/2000/svg" p-id="2461" xmlns:xlink="http://www.w3.org/1999/xlink" width="200" height="200"><path d="M883.43552 13.40416h-736.768c-55.40864 0-100.51072 44.81024-100.51072 99.84512v798.56128c0 55.00416 45.10208 99.81952 100.51072 99.81952h736.65536c55.35232 0 100.51072-44.81536 100.61824-99.81952V113.2544c0-55.03488-45.09696-99.85024-100.5056-99.85024z m33.536 898.51904c0 18.31424-15.104 33.31072-33.536 33.31072h-736.768c-18.63168 0-33.57184-14.99648-33.57184-33.31072V113.39264c0-18.4832 15.10912-33.33632 33.57184-33.33632v-0.14336h736.768c18.432 0 33.536 14.99648 33.536 33.33632V911.9232zM202.32704 454.4512h44.67712V144.99328h-44.67712l-44.52864 32.59392v46.85312l44.52864-32.59392v262.6048z m247.90016 321.536H182.26688c-18.63168 0-33.56672 15.17056-33.56672 33.4848s15.0784 33.4848 33.56672 33.4848h267.82208c18.42688 0 33.68448-15.17056 33.68448-33.4848s-15.08864-33.4848-33.54624-33.4848zM332.288 439.168a62.976 62.976 0 0 0 21.23264 13.21984c8.06912 3.06688 16.39936 4.52096 25.18016 4.52096 8.81664 0 17.17248-1.45408 25.216-4.52096s15.0784-7.40864 21.23776-13.21984c6.15424-5.69344 10.98752-12.68224 14.64832-20.83328 3.52256-8.15616 5.40672-17.31584 5.40672-27.79136V208.8704c0-10.4704-1.7408-19.63008-5.40672-27.78624-3.6608-8.0128-8.4992-14.99648-14.64832-20.83328a63.39584 63.39584 0 0 0-21.23776-13.25056 70.54848 70.54848 0 0 0-25.216-4.49536c-8.7808 0-17.28512 1.46432-25.18016 4.49536a62.976 62.976 0 0 0-21.23264 13.25056c-6.15936 5.69344-10.99264 12.67712-14.65344 20.83328-3.6608 8.15616-5.44256 17.31584-5.44256 27.78624v181.67296c0 10.47552 1.77664 19.6352 5.44256 27.79136 3.6608 8.15616 8.49408 15.0016 14.65344 20.83328z m24.61184-230.2976c0-6.40512 2.03264-11.64288 6.15424-15.85152 3.95264-4.23936 9.216-6.26688 15.65184-6.26688 6.2976 0 11.59168 2.02752 15.68256 6.26688 4.12672 4.20864 6.15936 9.4464 6.15936 15.85152v181.67296c0 6.41024-2.03264 11.648-6.15936 15.85664-3.94752 4.23936-9.216 6.272-15.68256 6.272-6.29248 0-11.55584-2.03264-15.65184-6.272-4.1216-4.20352-6.15424-9.44128-6.15424-15.85664V208.8704z m93.32736 367.6928H182.26688c-18.63168 0-33.56672 15.17056-33.56672 33.48992 0 18.31424 15.0784 33.4848 33.56672 33.4848h267.82208c18.42688 0 33.68448-15.17056 33.68448-33.4848-0.00512-18.31936-15.08864-33.48992-33.54624-33.48992z m116.44928-124.17536a65.90976 65.90976 0 0 0 21.29408-13.21984c6.12352-5.69344 10.93632-12.68224 14.64832-20.83328 3.49696-8.15616 5.38112-17.31584 5.38112-27.79136V208.8704c0-10.4704-1.7152-19.77344-5.38112-27.78624-3.71712-8.0128-8.5248-14.99648-14.64832-20.83328a63.5392 63.5392 0 0 0-21.29408-13.25056c-8.0128-3.03616-16.36352-4.49536-25.18528-4.49536-8.78592 0-17.28 1.46432-25.216 4.49536a63.37536 63.37536 0 0 0-21.23264 13.25056c-6.14912 5.69344-10.98752 12.67712-14.65344 20.83328-3.65568 8.15616-5.40672 17.31584-5.40672 27.78624v181.67296c0 10.47552 1.75104 19.6352 5.40672 27.79136 3.66592 8.15616 8.50432 15.0016 14.65344 20.83328a63.38048 63.38048 0 0 0 21.23264 13.21984c8.07936 3.06688 16.43008 4.52096 25.216 4.52096 8.81664 0 17.16736-1.45408 25.18528-4.52096z m-47.01696-61.84448V208.8704c0-6.40512 2.05824-11.64288 6.144-15.85152 3.95264-4.23936 9.39008-6.26688 15.68256-6.26688 6.2976 0 11.56608 2.02752 15.68256 6.26688 4.1216 4.20864 6.17984 9.4464 6.17984 15.85152v181.67296c0 6.41024-2.05824 11.648-6.17984 15.85664-4.00384 4.23936-9.38496 6.272-15.68256 6.272-6.29248 0-11.56096-2.03264-15.68256-6.272-4.08576-4.20864-6.144-9.4464-6.144-15.85664z m266.35776 89.37984l-141.95712 141.00992-65.47456-65.16736c-13.05088-12.96384-34.176-12.96384-47.33952 0-13.05088 12.928-13.05088 34.02752 0 47.01696l89.06752 88.89856a33.52576 33.52576 0 0 0 23.75168 9.7792 33.42848 33.42848 0 0 0 23.70048-9.7792l165.52448-164.74112a33.10592 33.10592 0 0 0 0-47.01696c-12.99456-12.96384-34.23232-12.96384-47.27296 0z m0 199.84384l-141.95712 141.03552-65.47456-65.18784c-13.05088-13.1072-34.176-12.98944-47.33952-0.16896-13.05088 12.928-13.05088 34.10944 0 47.04256l89.06752 88.94976a33.72032 33.72032 0 0 0 23.75168 9.73312 33.61792 33.61792 0 0 0 23.70048-9.73312l165.52448-164.61312c13.06112-12.99968 13.06112-34.11456 0-47.0528-12.99456-12.93824-34.23232-12.93824-47.27296-0.00512z" p-id="2462" fill="#515151"></path></svg>