<?xml version="1.0" standalone="no"?><!DOCTYPE svg PUBLIC "-//W3C//DTD SVG 1.1//EN" "http://www.w3.org/Graphics/SVG/1.1/DTD/svg11.dtd"><svg t="1748260953457" class="icon" viewBox="0 0 1024 1024" version="1.1" xmlns="http://www.w3.org/2000/svg" p-id="2656" xmlns:xlink="http://www.w3.org/1999/xlink" width="200" height="200"><path d="M872.448 102.4H151.552a49.288533 49.288533 0 0 0-49.152 49.152v720.896c0 27.0336 22.1184 49.152 49.152 49.152h265.8304c18.0224 0 32.768-14.7456 32.768-32.768a32.836267 32.836267 0 0 0-32.768-32.768H167.936V167.936h688.128v264.6016c0 18.0224 14.7456 32.768 32.768 32.768s32.768-14.7456 32.768-32.768V151.552a49.015467 49.015467 0 0 0-49.152-49.152z" fill="#4C4C4C" p-id="2657"></path><path d="M634.88 323.584H323.584a32.836267 32.836267 0 0 1-32.768-32.768c0-18.0224 14.7456-32.768 32.768-32.768H634.88c18.0224 0 32.768 14.7456 32.768 32.768s-14.336 32.768-32.768 32.768zM552.96 454.656H323.584a32.836267 32.836267 0 0 1-32.768-32.768c0-18.0224 14.7456-32.768 32.768-32.768H552.96c18.0224 0 32.768 14.7456 32.768 32.768s-14.336 32.768-32.768 32.768zM471.04 585.728H323.584a32.836267 32.836267 0 0 1-32.768-32.768c0-18.0224 14.7456-32.768 32.768-32.768H471.04c18.0224 0 32.768 14.7456 32.768 32.768s-14.336 32.768-32.768 32.768z m253.952-57.344a196.608 196.608 0 1 0 0.068267 393.284267 196.608 196.608 0 0 0-0.068267-393.284267z m0 327.68a131.4816 131.4816 0 0 1-131.072-131.072c0-72.0896 58.5728-131.072 131.072-131.072 72.4992 0 131.072 58.9824 131.072 131.072 0 72.4992-58.5728 131.072-131.072 131.072z" fill="#4C4C4C" p-id="2658"></path><path d="M692.224 798.72a32.836267 32.836267 0 0 1-32.768-32.768v-81.92c0-18.0224 14.7456-32.768 32.768-32.768s32.768 14.7456 32.768 32.768v81.92c0 18.0224-14.336 32.768-32.768 32.768z" fill="#4C4C4C" p-id="2659"></path><path d="M659.456 765.952c0-18.0224 14.7456-32.768 32.768-32.768h81.92c18.0224 0 32.768 14.7456 32.768 32.768s-14.7456 32.768-32.768 32.768h-81.92a32.836267 32.836267 0 0 1-32.768-32.768z" fill="#4C4C4C" p-id="2660"></path></svg>