<?xml version="1.0" standalone="no"?><!DOCTYPE svg PUBLIC "-//W3C//DTD SVG 1.1//EN" "http://www.w3.org/Graphics/SVG/1.1/DTD/svg11.dtd"><svg t="1737686441840" class="icon" viewBox="0 0 1024 1024" version="1.1" xmlns="http://www.w3.org/2000/svg" p-id="33041" xmlns:xlink="http://www.w3.org/1999/xlink" width="200" height="200"><path d="M744.64 992H177.92a143.296 143.296 0 0 1-145.856-139.712 141.568 141.568 0 0 1 107.712-134.976v-540.16A145.792 145.792 0 0 1 285.504 32.064h560.896a145.792 145.792 0 0 1 145.728 145.088v613.888a201.216 201.216 0 0 1-201.792 200.896zM99.456 852.288a76.8 76.8 0 0 0 78.464 75.264h107.584v-2.432h340.032a138.56 138.56 0 0 1-20.608-72.832 139.072 139.072 0 0 1 22.208-75.392H177.92a77.184 77.184 0 0 0-78.464 75.328z m659.2 72.832a76.096 76.096 0 0 0 58.752-72.832 76.8 76.8 0 0 0-75.52-75.328 75.648 75.648 0 0 0-72.32 75.328 75.52 75.52 0 0 0 56.32 72.832z m126.144-72.832a139.52 139.52 0 0 1-5.76 39.424 133.568 133.568 0 0 0 45.952-100.608V177.216a78.464 78.464 0 0 0-78.464-78.144H285.632a78.656 78.656 0 0 0-78.656 78.144v535.232h537.6a140.352 140.352 0 0 1 139.968 139.84zM371.264 523.392a32.448 32.448 0 0 1-32-32 32.32 32.32 0 0 1 32-32H532.48a32.384 32.384 0 0 1 32.384 32 32.512 32.512 0 0 1-32.384 32z m0-161.344a32.448 32.448 0 0 1-32-32.32 32.32 32.32 0 0 1 32-32h397.952a32 32 0 0 1 32 32 32.32 32.32 0 0 1-32 32.32z" fill="#515151" p-id="33042"></path></svg>