<?xml version="1.0" standalone="no"?><!DOCTYPE svg PUBLIC "-//W3C//DTD SVG 1.1//EN" "http://www.w3.org/Graphics/SVG/1.1/DTD/svg11.dtd"><svg t="1739516884234" class="icon" viewBox="0 0 1024 1024" version="1.1" xmlns="http://www.w3.org/2000/svg" p-id="5315" id="mx_n_1739516884234" data-spm-anchor-id="a313x.search_index.0.i1.40853a818B40IH" width="200" height="200" xmlns:xlink="http://www.w3.org/1999/xlink"><path d="M841.6 809.6h-288c-6.4 28.8-35.2 48-64 48-28.8 0-57.6-19.2-64-48h-288V160h192c70.4 0 128 54.4 128 118.4v208c0 19.2 16 32 32 32s32-12.8 32-32V278.4c0-64 57.6-118.4 128-118.4h192v131.2h64V160c0-32-28.8-57.6-64-57.6h-192c-67.2 0-124.8 32-160 80-35.2-48-92.8-80-160-80h-192c-35.2 0-64 25.6-64 57.6v649.6c0 32 28.8 57.6 64 57.6H384c25.6 32 64 54.4 105.6 54.4s83.2-22.4 105.6-54.4h246.4c35.2 0 64-25.6 64-57.6v-140.8h-64v140.8z" fill="#515151" p-id="5316"></path><path d="M377.6 297.6h-160c-19.2 0-32 12.8-32 32s12.8 32 32 32h160c19.2 0 32-12.8 32-32s-12.8-32-32-32zM377.6 451.2h-160c-19.2 0-32 12.8-32 32s12.8 32 32 32h160c19.2 0 32-12.8 32-32s-12.8-32-32-32zM377.6 608h-160c-19.2 0-32 12.8-32 32s12.8 32 32 32h160c19.2 0 32-12.8 32-32s-12.8-32-32-32zM793.6 329.6c0-19.2-12.8-32-32-32h-160c-19.2 0-32 12.8-32 32s12.8 32 32 32h160c19.2 0 32-16 32-32zM681.6 451.2h-80c-19.2 0-32 12.8-32 32s12.8 32 32 32h80c19.2 0 32-12.8 32-32s-12.8-32-32-32zM601.6 608c-19.2 0-32 12.8-32 32s12.8 32 32 32h28.8c19.2 0 32-12.8 32-32s-12.8-32-32-32h-28.8zM730.144 590.72l124.736-166.464 61.44 46.08-124.736 166.4zM774.4 659.2l-60.8-48 3.2 57.6zM940.8 406.4l-32-22.4c-6.4-3.2-19.2-6.4-22.4 0l-16 19.2 60.8 44.8 16-19.2c6.4-6.4 0-16-6.4-22.4z" fill="#515151" p-id="5317"></path></svg>