<?xml version="1.0" standalone="no"?><!DOCTYPE svg PUBLIC "-//W3C//DTD SVG 1.1//EN" "http://www.w3.org/Graphics/SVG/1.1/DTD/svg11.dtd"><svg t="1737686036587" class="icon" viewBox="0 0 1024 1024" version="1.1" xmlns="http://www.w3.org/2000/svg" p-id="28311" xmlns:xlink="http://www.w3.org/1999/xlink" width="200" height="200"><path d="M683.52 932.992H135.936c-5.248 0-9.6-4.224-9.6-9.344V126.336c0-5.12 4.352-9.344 9.6-9.344h733.568c5.248 0 9.6 4.224 9.6 9.344v306.432c0 17.664 14.336 32 32 32s32-14.336 32-32V126.336c0-40.448-33.024-73.344-73.6-73.344H135.936c-40.576 0-73.6 32.896-73.6 73.344v797.312c0 40.448 33.024 73.344 73.6 73.344H683.52c17.664 0 32-14.336 32-32s-14.336-32-32-32z" p-id="28312" fill="#515151"></path><path d="M801.28 314.112c0-17.664-14.336-32-32-32H236.16c-17.664 0-32 14.336-32 32s14.336 32 32 32H769.28c17.664 0 32-14.336 32-32zM699.904 525.056c0-17.664-14.336-32-32-32H236.16c-17.664 0-32 14.336-32 32s14.336 32 32 32h431.744c17.664 0 32-14.336 32-32zM236.16 704c-17.664 0-32 14.336-32 32s14.336 32 32 32h369.408c17.664 0 32-14.336 32-32s-14.336-32-32-32H236.16zM963.712 560.256c-29.44-25.856-68.096-40.064-108.8-40.064-38.912 0-75.648 13.952-103.296 39.296-26.624 24.32-41.856 56.32-41.856 87.68 0 62.336 36.608 89.728 40.832 92.544l36.608-52.48s0.384 0.256 0.896 0.64c-0.64-0.512-14.336-11.904-14.336-40.704 0-13.056 8.064-28.544 20.992-40.448 15.872-14.464 37.248-22.528 60.16-22.528 51.84 0 90.624 36.992 90.624 70.144 0 13.184-6.4 35.968-20.48 54.912-15.616 21.12-36.352 31.872-61.312 31.872h-32l0.128 133.632c0 17.664 14.336 32 32 32s32-14.336 32-32l-0.128-73.216c31.872-7.424 59.904-25.984 80.768-54.144 24.32-32.896 33.024-69.632 33.024-93.056 0-34.176-16.768-68.48-45.824-94.08zM859.648 936.448c-17.664 0-32.128 14.336-32.128 32.128s14.336 32.128 32.128 32.128c17.664 0 32.128-14.336 32.128-32.128s-14.464-32.128-32.128-32.128z" p-id="28313" fill="#515151"></path></svg>