<?xml version="1.0" standalone="no"?><!DOCTYPE svg PUBLIC "-//W3C//DTD SVG 1.1//EN" "http://www.w3.org/Graphics/SVG/1.1/DTD/svg11.dtd"><svg t="1736668697319" class="icon" viewBox="0 0 1024 1024" version="1.1" xmlns="http://www.w3.org/2000/svg" p-id="4868" xmlns:xlink="http://www.w3.org/1999/xlink" width="200" height="200"><path d="M785.066667 68.266667v341.333333c0 20.48-13.653333 34.133333-34.133334 34.133333-6.826667 0-13.653333 0-20.48-6.826666L614.4 341.333333 498.346667 436.906667c-13.653333 6.826667-34.133333 6.826667-47.786667-6.826667C443.733333 423.253333 443.733333 416.426667 443.733333 409.6V68.266667H170.666667c-40.96 0-68.266667 27.306667-68.266667 68.266666v750.933334c0 40.96 27.306667 68.266667 68.266667 68.266666h682.666666c40.96 0 68.266667-27.306667 68.266667-68.266666V136.533333c0-40.96-27.306667-68.266667-68.266667-68.266666h-68.266666zM170.666667 0h682.666666c75.093333 0 136.533333 61.44 136.533334 136.533333v750.933334c0 75.093333-61.44 136.533333-136.533334 136.533333H170.666667c-75.093333 0-136.533333-61.44-136.533334-136.533333V136.533333C34.133333 61.44 95.573333 0 170.666667 0z m68.266666 68.266667h68.266667v887.466666H238.933333V68.266667z m273.066667 0v266.24l61.44-47.786667c27.306667-20.48 61.44-20.48 81.92 0l61.44 47.786667V68.266667H512z" fill="#777777" p-id="4869"></path></svg>