<?xml version="1.0" standalone="no"?><!DOCTYPE svg PUBLIC "-//W3C//DTD SVG 1.1//EN" "http://www.w3.org/Graphics/SVG/1.1/DTD/svg11.dtd"><svg t="1747796513048" class="icon" viewBox="0 0 1024 1024" version="1.1" xmlns="http://www.w3.org/2000/svg" p-id="5337" xmlns:xlink="http://www.w3.org/1999/xlink" width="48" height="48"><path d="M649.846154 23.788308a34.461538 34.461538 0 0 1 0 68.923077h-103.424l0.039384 57.462153a34.382769 34.382769 0 0 1-2.402461 12.681847c219.766154 16.344615 392.979692 199.837538 392.979692 423.778461 0 234.732308-190.306462 425.078154-425.038769 425.078154S86.961231 821.405538 86.961231 586.673231c0-223.980308 173.252923-407.473231 393.019077-423.857231a33.634462 33.634462 0 0 1-2.441846-12.642462V92.711385H374.153846a34.461538 34.461538 0 1 1 0-68.923077h275.692308zM512 230.557538a356.115692 356.115692 0 1 0 0 712.231385 356.115692 356.115692 0 0 0 0-712.231385z m0 137.846154c19.022769 0 34.461538 15.438769 34.461538 34.461539v149.307077h149.346462a34.461538 34.461538 0 1 1 0 68.923077H512a34.461538 34.461538 0 0 1-34.461538-34.422154v-183.808c0-19.022769 15.438769-34.461538 34.461538-34.461539z" fill="#8a8a8a" p-id="5338"></path></svg>