<?xml version="1.0" standalone="no"?><!DOCTYPE svg PUBLIC "-//W3C//DTD SVG 1.1//EN" "http://www.w3.org/Graphics/SVG/1.1/DTD/svg11.dtd"><svg t="1745653011616" class="icon" viewBox="0 0 1024 1024" version="1.1" xmlns="http://www.w3.org/2000/svg" p-id="5649" xmlns:xlink="http://www.w3.org/1999/xlink" width="200" height="200"><path d="M512 1024C229.216 1024 0 794.784 0 512S229.216 0 512 0s512 229.216 512 512-229.216 512-512 512z m0-672a64 64 0 0 0-64 64v352a64 64 0 1 0 128 0V416a64 64 0 0 0-64-64z m0-32a64 64 0 1 0 0-128 64 64 0 0 0 0 128z" fill="#FF2B2B" p-id="5650"></path></svg>