<?xml version="1.0" standalone="no"?><!DOCTYPE svg PUBLIC "-//W3C//DTD SVG 1.1//EN" "http://www.w3.org/Graphics/SVG/1.1/DTD/svg11.dtd"><svg t="1743860204473" class="icon" viewBox="0 0 1024 1024" version="1.1" xmlns="http://www.w3.org/2000/svg" p-id="11146" xmlns:xlink="http://www.w3.org/1999/xlink" width="200" height="200"><path d="M210.289778 366.336L512 668.017778l301.710222-301.681778a28.444444 28.444444 0 0 1 40.220445 0l40.220444 40.220444a28.444444 28.444444 0 0 1 0 40.220445l-341.902222 341.902222c-9.386667 9.386667-21.191111 14.791111-33.365333 16.270222l-4.579556 0.369778h-4.608a56.689778 56.689778 0 0 1-37.916444-16.611555L129.848889 446.805333a28.444444 28.444444 0 0 1 0-40.248889l40.220444-40.220444a28.444444 28.444444 0 0 1 40.220445 0z" fill="#000000" p-id="11147"></path></svg>