<?xml version="1.0" encoding="utf-8"?>
<svg version="1.1" xmlns:xlink="http://www.w3.org/1999/xlink" width="24px" height="19px" xmlns="http://www.w3.org/2000/svg">
  <g transform="matrix(1 0 0 1 -176 -133 )">
    <path d="M 5.18799368088468 5.14818481848185  C 5.50394944707741 4.83465346534654  5.66192733017377 4.45632563256325  5.66192733017377 4.01320132013201  C 5.66192733017377 3.57007700770077  5.50394944707741 3.19174917491749  5.18799368088468 2.87821782178218  C 4.87203791469194 2.56468646864687  4.49078462348605 2.40792079207921  4.04423380726698 2.40792079207921  C 3.59768299104792 2.40792079207921  3.21642969984202 2.56468646864687  2.90047393364929 2.87821782178218  C 2.58451816745656 3.19174917491749  2.42654028436019 3.57007700770077  2.42654028436019 4.01320132013201  C 2.42654028436019 4.45632563256325  2.58451816745656 4.83465346534654  2.90047393364929 5.14818481848185  C 3.21642969984202 5.46171617161716  3.59768299104792 5.61848184818482  4.04423380726698 5.61848184818482  C 4.49078462348605 5.61848184818482  4.87203791469194 5.46171617161716  5.18799368088468 5.14818481848185  Z M 18.6793048973144 10.0957095709571  C 18.9910479199579 10.4217821782178  19.1469194312796 10.802200220022  19.1469194312796 11.2369636963696  C 19.1469194312796 11.6800880088009  18.9910479199579 12.0563256325633  18.6793048973144 12.3656765676568  L 12.4739336492891 18.5359735973597  C 12.1453396524487 18.8453245324532  11.7619799894681 19  11.3238546603475 19  C 10.8773038441285 19  10.4981569246972 18.8453245324532  10.1864139020537 18.5359735973597  L 1.15007898894155 9.55643564356436  C 0.829910479199579 9.24708470847085  0.558188520273828 8.82486248624862  0.334913112164297 8.28976897689769  C 0.111637704054766 7.75467546754675  0 7.26556655665566  0 6.82244224422442  L 0 1.60528052805281  C 0 1.17051705170517  0.160084254870985 0.794279427942794  0.480252764612954 0.476567656765676  C 0.800421274354924 0.158855885588557  1.1795681937862 0  1.61769352290679 0  L 6.87519747235387 0  C 7.32174828857293 0  7.8146392838336 0.110781078107809  8.35387045813586 0.332343234323432  C 8.89310163243813 0.553905390539053  9.32280147446024 0.823542354235421  9.64296998420221 1.14125412541254  L 18.6793048973144 10.0957095709571  Z M 23.5323854660348 10.0957095709571  C 23.8441284886783 10.4217821782178  24 10.802200220022  24 11.2369636963696  C 24 11.6800880088009  23.8441284886783 12.0563256325633  23.5323854660348 12.3656765676568  L 17.3270142180095 18.5359735973597  C 16.998420221169 18.8453245324532  16.6150605581885 19  16.1769352290679 19  C 15.8736176935229 19  15.625065824118 18.9414741474147  15.4312796208531 18.8244224422442  C 15.2374934175882 18.7073707370737  15.0142180094787 18.5192519251925  14.7614533965245 18.2600660066007  L 20.7014218009479 12.3656765676568  C 21.0131648235914 12.0563256325633  21.1690363349131 11.6800880088009  21.1690363349131 11.2369636963696  C 21.1690363349131 10.802200220022  21.0131648235914 10.4217821782178  20.7014218009479 10.0957095709571  L 11.6650868878357 1.14125412541254  C 11.3449183780937 0.823542354235421  10.9152185360716 0.553905390539053  10.3759873617694 0.332343234323432  C 9.83675618746709 0.110781078107809  9.34386519220642 0  8.89731437598736 0  L 11.7282780410743 0  C 12.1748288572933 0  12.667719852554 0.110781078107809  13.2069510268562 0.332343234323432  C 13.7461822011585 0.553905390539053  14.1758820431806 0.823542354235421  14.4960505529226 1.14125412541254  L 23.5323854660348 10.0957095709571  Z " fill-rule="nonzero" fill="#4886fe" stroke="none" transform="matrix(1 0 0 1 176 133 )" />
  </g>
</svg>