<?xml version="1.0" encoding="utf-8"?>
<svg version="1.1" xmlns:xlink="http://www.w3.org/1999/xlink" width="22px" height="23px" xmlns="http://www.w3.org/2000/svg">
  <g transform="matrix(1 0 0 1 -889 -7 )">
    <path d="M 15.5833333333333 3.28571428571429  L 22 3.28571428571429  L 22 4.92857142857143  L 20 4.92857142857143  L 20 21.3571428571429  C 20.1666666666667 22.2644685428572  19.3458543666667 23  18.3333333333333 23  L 3.66666666666667 23  C 2.65414424000009 23  1.83333333333333 22.2644669  2 21.3571428571429  L 2 4.92857142857143  L 0 4.92857142857143  L 0 3.28571428571429  L 6.41666666666667 3.28571428571429  L 6.41666666666667 1.31428691357137  C 6.41666666666667 0.588427137142852  7.07331566333333 0  7.88333368166665 0  L 14.1166663183333 0  C 14.9266839333332 0  15.5833333333333 0.588425674999956  15.5833333333333 1.31428592785705  L 15.5833333333333 3.28571428571429  Z M 4 5  L 4 21  L 18 21  L 18 5  L 4 5  Z M 13.75 1.64285714285714  L 8.25 1.64285714285714  L 8.25 3.28571428571429  L 13.75 3.28571428571429  L 13.75 1.64285714285714  Z M 7.33333333333333 18.0714285714286  L 7.33333333333333 8.21428571428572  L 9.16666666666667 8.21428571428572  L 9.16666666666667 18.0714285714286  L 7.33333333333333 18.0714285714286  Z M 14.6666666666667 18.0714285714286  L 12.8333333333333 18.0714285714286  L 12.8333333333333 8.21428571428572  L 14.6666666666667 8.21428571428572  L 14.6666666666667 18.0714285714286  Z " fill-rule="nonzero" fill="#000000" stroke="none" fill-opacity="0.898039215686275" transform="matrix(1 0 0 1 889 7 )" />
  </g>
</svg>