<?xml version="1.0" encoding="utf-8"?>
<svg version="1.1" xmlns:xlink="http://www.w3.org/1999/xlink" width="26px" height="26px" xmlns="http://www.w3.org/2000/svg">
  <g transform="matrix(1 0 0 1 -1030 -4 )">
    <path d="M 20.26171875 14.8450520833333  C 20.4761284722222 14.6306423611111  20.5833333333333 14.3767361111111  20.5833333333333 14.0833333333333  L 20.5833333333333 11.9166666666667  C 20.5833333333333 11.6232638888889  20.4761284722222 11.3693576388889  20.26171875 11.1549479166667  C 20.0473090277778 10.9405381944444  19.7934027777778 10.8333333333333  19.5 11  L 6.5 11  C 6.20659722222222 10.8333333333333  5.95269097222222 10.9405381944444  5.73828125 11.1549479166667  C 5.52387152777778 11.3693576388889  5.41666666666667 11.6232638888889  5.41666666666667 11.9166666666667  L 5.41666666666667 14.0833333333333  C 5.41666666666667 14.3767361111111  5.52387152777778 14.6306423611111  5.73828125 14.8450520833333  C 5.95269097222222 15.0594618055556  6.20659722222222 15.1666666666667  6.5 15  L 19.5 15  C 19.7934027777778 15.1666666666667  20.0473090277778 15.0594618055556  20.26171875 14.8450520833333  Z M 24.2565104166667 6.474609375  C 25.4188368055556 8.46636284722222  26 10.6414930555556  26 13  C 26 15.3585069444444  25.4188368055556 17.5336371527778  24.2565104166667 19.525390625  C 23.0941840277778 21.5171440972222  21.5171440972222 23.0941840277778  19.525390625 24.2565104166667  C 17.5336371527778 25.4188368055556  15.3585069444444 26  13 26  C 10.6414930555556 26  8.46636284722222 25.4188368055556  6.474609375 24.2565104166667  C 4.48285590277778 23.0941840277778  2.90581597222222 21.5171440972222  1.74348958333333 19.525390625  C 0.581163194444444 17.5336371527778  0 15.3585069444444  0 13  C 0 10.6414930555556  0.581163194444444 8.46636284722222  1.74348958333333 6.474609375  C 2.90581597222222 4.48285590277778  4.48285590277778 2.90581597222222  6.474609375 1.74348958333333  C 8.46636284722222 0.581163194444442  10.6414930555556 0  13 0  C 15.3585069444444 0  17.5336371527778 0.581163194444442  19.525390625 1.74348958333333  C 21.5171440972222 2.90581597222222  23.0941840277778 4.48285590277778  24.2565104166667 6.474609375  Z " fill-rule="nonzero" fill="#d80000" stroke="none" transform="matrix(1 0 0 1 1030 4 )" />
  </g>
</svg>