<?xml version="1.0" encoding="utf-8"?>
<svg version="1.1" xmlns:xlink="http://www.w3.org/1999/xlink" width="12px" height="14px" xmlns="http://www.w3.org/2000/svg">
  <g transform="matrix(1 0 0 1 -371 -22 )">
    <path d="M 10.263588900000002 5.426278620000025  L 6.5 8.938963824000044  L 6.499980929999992 0.4666666666666667  L 5.499980929999992 0.4666666666666667  L 5.5 8.938959372000014  L 1.7364120500000126 5.426279515999992  L 1.0293053400000076 6.086245666666628  L 5.646446620000006 10.395577826666704  C 5.841708750000009 10.577822546666706  6.158291239999983 10.577822546666706  6.353553390000002 10.395577826666704  L 10.970695499999977 6.086245218666697  L 10.263588900000002 5.426278620000025  Z M 0 10.266688880000007  L 0 12.133355546666674  C 0 12.648820893333337  0.447715340000002 13.066688880000008  1 13  L 11 13  C 11.552284199999974 13.066688880000008  12 12.648821733333367  12 12.133355546666674  L 12 10.266688880000007  L 11 10.266688880000007  L 11 12  L 1 12  L 1 10.266688880000007  L 0 10.266688880000007  Z " fill-rule="nonzero" fill="#0000ff" stroke="none" transform="matrix(1 0 0 1 371 22 )" />
  </g>
</svg>