<?xml version="1.0" encoding="utf-8"?>
<svg version="1.1" xmlns:xlink="http://www.w3.org/1999/xlink" width="74px" height="74px" xmlns="http://www.w3.org/2000/svg">
  <defs>
    <pattern id="BGPattern" patternUnits="userSpaceOnUse" alignment="0 0" imageRepeat="None" />
    <mask fill="white" id="Clip1025">
      <path d="M 73.4931506849315 10.36  C 73.74657534246575 20.66896551724138  73.69589041095891 30.977931034482754  73.69589041095891 41.23586206896552  C 72.88493150684933 41.03172413793104  72.0232876712329 40.929655172413796  71 40.77655172413794  L 71 10  L 43.589041095890416 10  L 43.589041095890416 16  L 65.38356164383562 16  L 65.38356164383562 20  L 43.589041095890416 20  L 43.589041095890416 24  L 65.38356164383562 24  L 65.38356164383562 27  L 43.589041095890416 27  L 43.589041095890416 31  L 65.38356164383562 31  L 65.38356164383562 35  L 43.589041095890416 35  L 43.589041095890416 38  L 65.38356164383562 38  L 65.38356164383562 41.03172413793104  C 63.8123287671233 41.28689655172413  62.241095890410946 41.644137931034486  60.821917808219176 42  L 43.690410958904096 42  L 43.690410958904096 46  L 53.77671232876711 46  C 52.661643835616424 47.56413793103449  51.5972602739726 48.737931034482756  50.63424657534245 50.013793103448286  L 43.589041095890416 50.013793103448286  L 43.589041095890416 54.30068965517242  L 48.15068493150685 54.30068965517242  C 47.643835616438366 55.423448275862086  47.28904109589042 56.59724137931035  46.93424657534246 57.77103448275863  L 43.48767123287671 57.77103448275863  L 43.48767123287671 64.66068965517243  L 46.326027397260276 64.66068965517243  C 46.37671232876712 65.52827586206898  46.52876712328767 66.49793103448278  46.630136986301366 67.36551724137932  L 43.48767123287671 67.36551724137932  L 43.48767123287671 73.89793103448278  L 38.26712328767123 73.89793103448278  C 25.545205479452058 71.55034482758623  12.72191780821918 69.35586206896554  0 67.05931034482761  L 0 7.0427586206896535  C 12.82328767123288 4.746206896551724  25.64657534246576 2.5517241379310343  38.469863013698635 0.15310344827586064  L 43.43698630136988 0.15310344827586064  L 43.43698630136988 7.0427586206896535  C 52.35753424657535 7.093793103448275  61.32876712328767 6.991724137931032  70.24931506849315 7.093793103448275  C 71.11095890410958 7.0427586206896535  72.07397260273974 7.348965517241379  72.68219178082192 7.961379310344829  C 73.29041095890412 8.573793103448274  73.64520547945206 9.492413793103449  73.4931506849315 10.36  Z M 20.476712328767118 39.09241379310344  C 21.287671232876708 41.13379310344827  22.098630136986298 43.22620689655171  22.909589041095895 45.26758620689655  C 24.278082191780825 48.78896551724138  25.038356164383565 50.8303448275862  25.241095890410968 51.28965517241379  L 32.184931506849324 51.748965517241366  L 24.22739726027397 35.724137931034484  L 32.032876712328765 20.005517241379316  L 25.494520547945207 20.41379310344828  L 20.730136986301375 32.3048275862069  L 20.67945205479452 32.3048275862069  L 16.523287671232875 20.924137931034483  L 10.18767123287671 21.28137931034483  L 16.97945205479452 35.82620689655172  L 9.528767123287668 50.37103448275862  L 15.763013698630134 50.830344827586195  L 20.426027397260274 39.09241379310344  L 20.476712328767118 39.09241379310344  Z " fill-rule="evenodd" />
    </mask>
  </defs>
  <g transform="matrix(1 0 0 1 -394 -229 )">
    <path d="M 73.4931506849315 10.36  C 73.74657534246575 20.66896551724138  73.69589041095891 30.977931034482754  73.69589041095891 41.23586206896552  C 72.88493150684933 41.03172413793104  72.0232876712329 40.929655172413796  71 40.77655172413794  L 71 10  L 43.589041095890416 10  L 43.589041095890416 16  L 65.38356164383562 16  L 65.38356164383562 20  L 43.589041095890416 20  L 43.589041095890416 24  L 65.38356164383562 24  L 65.38356164383562 27  L 43.589041095890416 27  L 43.589041095890416 31  L 65.38356164383562 31  L 65.38356164383562 35  L 43.589041095890416 35  L 43.589041095890416 38  L 65.38356164383562 38  L 65.38356164383562 41.03172413793104  C 63.8123287671233 41.28689655172413  62.241095890410946 41.644137931034486  60.821917808219176 42  L 43.690410958904096 42  L 43.690410958904096 46  L 53.77671232876711 46  C 52.661643835616424 47.56413793103449  51.5972602739726 48.737931034482756  50.63424657534245 50.013793103448286  L 43.589041095890416 50.013793103448286  L 43.589041095890416 54.30068965517242  L 48.15068493150685 54.30068965517242  C 47.643835616438366 55.423448275862086  47.28904109589042 56.59724137931035  46.93424657534246 57.77103448275863  L 43.48767123287671 57.77103448275863  L 43.48767123287671 64.66068965517243  L 46.326027397260276 64.66068965517243  C 46.37671232876712 65.52827586206898  46.52876712328767 66.49793103448278  46.630136986301366 67.36551724137932  L 43.48767123287671 67.36551724137932  L 43.48767123287671 73.89793103448278  L 38.26712328767123 73.89793103448278  C 25.545205479452058 71.55034482758623  12.72191780821918 69.35586206896554  0 67.05931034482761  L 0 7.0427586206896535  C 12.82328767123288 4.746206896551724  25.64657534246576 2.5517241379310343  38.469863013698635 0.15310344827586064  L 43.43698630136988 0.15310344827586064  L 43.43698630136988 7.0427586206896535  C 52.35753424657535 7.093793103448275  61.32876712328767 6.991724137931032  70.24931506849315 7.093793103448275  C 71.11095890410958 7.0427586206896535  72.07397260273974 7.348965517241379  72.68219178082192 7.961379310344829  C 73.29041095890412 8.573793103448274  73.64520547945206 9.492413793103449  73.4931506849315 10.36  Z M 20.476712328767118 39.09241379310344  C 21.287671232876708 41.13379310344827  22.098630136986298 43.22620689655171  22.909589041095895 45.26758620689655  C 24.278082191780825 48.78896551724138  25.038356164383565 50.8303448275862  25.241095890410968 51.28965517241379  L 32.184931506849324 51.748965517241366  L 24.22739726027397 35.724137931034484  L 32.032876712328765 20.005517241379316  L 25.494520547945207 20.41379310344828  L 20.730136986301375 32.3048275862069  L 20.67945205479452 32.3048275862069  L 16.523287671232875 20.924137931034483  L 10.18767123287671 21.28137931034483  L 16.97945205479452 35.82620689655172  L 9.528767123287668 50.37103448275862  L 15.763013698630134 50.830344827586195  L 20.426027397260274 39.09241379310344  L 20.476712328767118 39.09241379310344  Z " fill-rule="nonzero" fill="rgba(0, 82, 217, 1)" stroke="none" transform="matrix(1 0 0 1 394 229 )" class="fill" />
    <path d="M 73.4931506849315 10.36  C 73.74657534246575 20.66896551724138  73.69589041095891 30.977931034482754  73.69589041095891 41.23586206896552  C 72.88493150684933 41.03172413793104  72.0232876712329 40.929655172413796  71 40.77655172413794  L 71 10  L 43.589041095890416 10  L 43.589041095890416 16  L 65.38356164383562 16  L 65.38356164383562 20  L 43.589041095890416 20  L 43.589041095890416 24  L 65.38356164383562 24  L 65.38356164383562 27  L 43.589041095890416 27  L 43.589041095890416 31  L 65.38356164383562 31  L 65.38356164383562 35  L 43.589041095890416 35  L 43.589041095890416 38  L 65.38356164383562 38  L 65.38356164383562 41.03172413793104  C 63.8123287671233 41.28689655172413  62.241095890410946 41.644137931034486  60.821917808219176 42  L 43.690410958904096 42  L 43.690410958904096 46  L 53.77671232876711 46  C 52.661643835616424 47.56413793103449  51.5972602739726 48.737931034482756  50.63424657534245 50.013793103448286  L 43.589041095890416 50.013793103448286  L 43.589041095890416 54.30068965517242  L 48.15068493150685 54.30068965517242  C 47.643835616438366 55.423448275862086  47.28904109589042 56.59724137931035  46.93424657534246 57.77103448275863  L 43.48767123287671 57.77103448275863  L 43.48767123287671 64.66068965517243  L 46.326027397260276 64.66068965517243  C 46.37671232876712 65.52827586206898  46.52876712328767 66.49793103448278  46.630136986301366 67.36551724137932  L 43.48767123287671 67.36551724137932  L 43.48767123287671 73.89793103448278  L 38.26712328767123 73.89793103448278  C 25.545205479452058 71.55034482758623  12.72191780821918 69.35586206896554  0 67.05931034482761  L 0 7.0427586206896535  C 12.82328767123288 4.746206896551724  25.64657534246576 2.5517241379310343  38.469863013698635 0.15310344827586064  L 43.43698630136988 0.15310344827586064  L 43.43698630136988 7.0427586206896535  C 52.35753424657535 7.093793103448275  61.32876712328767 6.991724137931032  70.24931506849315 7.093793103448275  C 71.11095890410958 7.0427586206896535  72.07397260273974 7.348965517241379  72.68219178082192 7.961379310344829  C 73.29041095890412 8.573793103448274  73.64520547945206 9.492413793103449  73.4931506849315 10.36  Z " stroke-width="0" stroke-dasharray="0" stroke="rgba(247, 248, 250, 1)" fill="none" transform="matrix(1 0 0 1 394 229 )" class="stroke" mask="url(#Clip1025)" />
    <path d="M 20.476712328767118 39.09241379310344  C 21.287671232876708 41.13379310344827  22.098630136986298 43.22620689655171  22.909589041095895 45.26758620689655  C 24.278082191780825 48.78896551724138  25.038356164383565 50.8303448275862  25.241095890410968 51.28965517241379  L 32.184931506849324 51.748965517241366  L 24.22739726027397 35.724137931034484  L 32.032876712328765 20.005517241379316  L 25.494520547945207 20.41379310344828  L 20.730136986301375 32.3048275862069  L 20.67945205479452 32.3048275862069  L 16.523287671232875 20.924137931034483  L 10.18767123287671 21.28137931034483  L 16.97945205479452 35.82620689655172  L 9.528767123287668 50.37103448275862  L 15.763013698630134 50.830344827586195  L 20.426027397260274 39.09241379310344  L 20.476712328767118 39.09241379310344  Z " stroke-width="0" stroke-dasharray="0" stroke="rgba(247, 248, 250, 1)" fill="none" transform="matrix(1 0 0 1 394 229 )" class="stroke" mask="url(#Clip1025)" />
  </g>
</svg>