<?xml version="1.0" encoding="utf-8"?>
<svg version="1.1" xmlns:xlink="http://www.w3.org/1999/xlink" width="35px" height="35px" xmlns="http://www.w3.org/2000/svg">
  <defs>
    <pattern id="BGPattern" patternUnits="userSpaceOnUse" alignment="0 0" imageRepeat="None" />
    <mask fill="white" id="Clip1026">
      <path d="M 34.73673913043478 17.493913043478262  C 34.787463768115934 8.00840579710144  27.026594202898554 0.29826086956521425  17.490362318840575 0.29826086956521425  C 7.954130434782615 0.29826086956521425  0.24398550724637402 8.00840579710144  0.24398550724637402 17.493913043478262  C 0.24398550724637402 26.979420289855067  7.9541304347826 34.68956521739129  17.490362318840575 34.68956521739129  C 27.026594202898554 34.63884057971015  34.73673913043478 26.877971014492754  34.73673913043478 17.493913043478262  Z M 25.149782608695645 22.109855072463777  L 18.961376811594203 28.602608695652176  C 18.606304347826093 28.906956521739133  18.14978260869564 29.10985507246377  17.693260869565215 29.10985507246377  C 17.23673913043478 29.10985507246377  16.881666666666668 29.008405797101457  16.47586956521739 28.653333333333332  L 9.678768115942038 22.109855072463777  C 9.171521739130444 21.602608695652187  8.917898550724646 20.841739130434796  9.2222463768116 20.18231884057972  C 9.475869565217396 19.47217391304348  10.084565217391305 18.964927536231887  10.845434782608711 18.964927536231887  L 14 18.964927536231887  L 14 8.109855072463775  C 13.533840579710152 7.0953623188405865  13.990362318840589 6.537391304347836  14.903405797101449 6.537391304347836  L 19.468623188405797 6.537391304347836  C 20.483115942029002 6.537391304347836  20.838188405797112 7.0953623188405865  20.838188405797112 8.109855072463775  L 20.838188405797112 18.660579710144933  L 23.983115942028988 18.660579710144933  C 24.74398550724638 18.660579710144933  25.35268115942029 19.26927536231884  25.65702898550724 19.979420289855074  C 25.910652173913036 20.68956521739131  25.707753623188395 21.602608695652187  25.149782608695645 22.109855072463777  Z " fill-rule="evenodd" />
    </mask>
  </defs>
  <g transform="matrix(1 0 0 1 -445 -274 )">
    <path d="M 34.73673913043478 17.493913043478262  C 34.787463768115934 8.00840579710144  27.026594202898554 0.29826086956521425  17.490362318840575 0.29826086956521425  C 7.954130434782615 0.29826086956521425  0.24398550724637402 8.00840579710144  0.24398550724637402 17.493913043478262  C 0.24398550724637402 26.979420289855067  7.9541304347826 34.68956521739129  17.490362318840575 34.68956521739129  C 27.026594202898554 34.63884057971015  34.73673913043478 26.877971014492754  34.73673913043478 17.493913043478262  Z M 25.149782608695645 22.109855072463777  L 18.961376811594203 28.602608695652176  C 18.606304347826093 28.906956521739133  18.14978260869564 29.10985507246377  17.693260869565215 29.10985507246377  C 17.23673913043478 29.10985507246377  16.881666666666668 29.008405797101457  16.47586956521739 28.653333333333332  L 9.678768115942038 22.109855072463777  C 9.171521739130444 21.602608695652187  8.917898550724646 20.841739130434796  9.2222463768116 20.18231884057972  C 9.475869565217396 19.47217391304348  10.084565217391305 18.964927536231887  10.845434782608711 18.964927536231887  L 14 18.964927536231887  L 14 8.109855072463775  C 13.533840579710152 7.0953623188405865  13.990362318840589 6.537391304347836  14.903405797101449 6.537391304347836  L 19.468623188405797 6.537391304347836  C 20.483115942029002 6.537391304347836  20.838188405797112 7.0953623188405865  20.838188405797112 8.109855072463775  L 20.838188405797112 18.660579710144933  L 23.983115942028988 18.660579710144933  C 24.74398550724638 18.660579710144933  25.35268115942029 19.26927536231884  25.65702898550724 19.979420289855074  C 25.910652173913036 20.68956521739131  25.707753623188395 21.602608695652187  25.149782608695645 22.109855072463777  Z " fill-rule="nonzero" fill="rgba(0, 82, 217, 1)" stroke="none" transform="matrix(1 0 0 1 445 274 )" class="fill" />
    <path d="M 34.73673913043478 17.493913043478262  C 34.787463768115934 8.00840579710144  27.026594202898554 0.29826086956521425  17.490362318840575 0.29826086956521425  C 7.954130434782615 0.29826086956521425  0.24398550724637402 8.00840579710144  0.24398550724637402 17.493913043478262  C 0.24398550724637402 26.979420289855067  7.9541304347826 34.68956521739129  17.490362318840575 34.68956521739129  C 27.026594202898554 34.63884057971015  34.73673913043478 26.877971014492754  34.73673913043478 17.493913043478262  Z " stroke-width="0" stroke-dasharray="0" stroke="rgba(247, 248, 250, 1)" fill="none" transform="matrix(1 0 0 1 445 274 )" class="stroke" mask="url(#Clip1026)" />
    <path d="M 25.149782608695645 22.109855072463777  L 18.961376811594203 28.602608695652176  C 18.606304347826093 28.906956521739133  18.14978260869564 29.10985507246377  17.693260869565215 29.10985507246377  C 17.23673913043478 29.10985507246377  16.881666666666668 29.008405797101457  16.47586956521739 28.653333333333332  L 9.678768115942038 22.109855072463777  C 9.171521739130444 21.602608695652187  8.917898550724646 20.841739130434796  9.2222463768116 20.18231884057972  C 9.475869565217396 19.47217391304348  10.084565217391305 18.964927536231887  10.845434782608711 18.964927536231887  L 14 18.964927536231887  L 14 8.109855072463775  C 13.533840579710152 7.0953623188405865  13.990362318840589 6.537391304347836  14.903405797101449 6.537391304347836  L 19.468623188405797 6.537391304347836  C 20.483115942029002 6.537391304347836  20.838188405797112 7.0953623188405865  20.838188405797112 8.109855072463775  L 20.838188405797112 18.660579710144933  L 23.983115942028988 18.660579710144933  C 24.74398550724638 18.660579710144933  25.35268115942029 19.26927536231884  25.65702898550724 19.979420289855074  C 25.910652173913036 20.68956521739131  25.707753623188395 21.602608695652187  25.149782608695645 22.109855072463777  Z " stroke-width="0" stroke-dasharray="0" stroke="rgba(247, 248, 250, 1)" fill="none" transform="matrix(1 0 0 1 445 274 )" class="stroke" mask="url(#Clip1026)" />
  </g>
</svg>