<?xml version="1.0" encoding="utf-8"?>
<svg version="1.1" xmlns:xlink="http://www.w3.org/1999/xlink" width="27px" height="27px" viewBox="62 427  27 27" xmlns="http://www.w3.org/2000/svg">
  <path d="M 75.5 427  C 83.06 427  89 432.94  89 440.5  C 89 448.06  83.06 454  75.5 454  C 67.94 454  62 448.06  62 440.5  C 62 432.94  67.94 427  75.5 427  Z " fill-rule="nonzero" fill="#ffffff" stroke="none" />
  <path d="M 75.5 427.5  C 82.78 427.5  88.5 433.22  88.5 440.5  C 88.5 447.78  82.78 453.5  75.5 453.5  C 68.22 453.5  62.5 447.78  62.5 440.5  C 62.5 433.22  68.22 427.5  75.5 427.5  Z " stroke-width="1" stroke="#66cd00" fill="none" />
  <path d="M 75.5 447.25  C 71.72 447.25  68.75 444.28  68.75 440.5  C 68.75 436.72  71.72 433.75  75.5 433.75  C 79.28 433.75  82.25 436.72  82.25 440.5  C 82.25 444.28  79.28 447.25  75.5 447.25  " fill-rule="nonzero" fill="#66cd00" stroke="none" />
</svg>