<?xml version="1.0" encoding="utf-8"?>
<svg version="1.1" xmlns:xlink="http://www.w3.org/1999/xlink" width="31px" height="29px" xmlns="http://www.w3.org/2000/svg">
  <g transform="matrix(1 0 0 1 -50 -10 )">
    <path d="M 5.26328055923079 7.25009103583336  L 9.18942268999992 3.27117873333336  L 7.50324543692308 1.56233725166668  L 1.54170668923081 7.60400370083331  C 1.07608146692313 8.07588713333335  1.07608144307696 8.84096148416668  1.54170654615377 9.31284503750001  L 7.50324543692308 15.3545115108333  L 9.18942268999992 13.645670585  L 5.26328055923079 10  L 19.0771026384617 10  C 23.0280638461538 9.66675770250003  26.2309487923078 12.9126923466667  26.2309487923078 16.9167577025  C 26.2309487923078 20.9208230583334  23.0280638461538 24.1667587416667  19.0771026384617 24  L 7.15402638307703 24  L 7.15402638307703 26.5834254083334  L 19.0771026384617 26.5834254083334  C 24.3450492461539 26.5834254083334  28.6155641769232 22.255509875  28.6155641769232 16.9167577025  C 28.6155641769232 11.5780054333334  24.3450492461539 7.25009103583336  19.0771026384617 7.25009103583336  L 5.26328055923079 7.25009103583336  Z " fill-rule="nonzero" fill="#000000" stroke="none" fill-opacity="0.996078431372549" transform="matrix(1 0 0 1 50 10 )" />
  </g>
</svg>