<?xml version="1.0" encoding="utf-8"?>
<svg version="1.1" xmlns:xlink="http://www.w3.org/1999/xlink" width="97px" height="86px" xmlns="http://www.w3.org/2000/svg">
  <defs>
    <pattern id="BGPattern" patternUnits="userSpaceOnUse" alignment="0 0" imageRepeat="None" />
    <mask fill="white" id="Clip1022">
      <path d="M 84.34614361702126 31.244558823529413  C 82.43710106382979 13.848529411764707  68.0096409574468 0.37941176470588234  50.550930851063825 0.37941176470588234  C 36.5749335106383 0.37941176470588234  24.249999999999996 9.074264705882353  19.07752659574468 21.94897058823529  C 8.17147606382979 24.225441176470593  0.12898936170212766 34.09647058823529  0.12898936170212766 45.700147058823525  C 0.12898936170212766 59.055441176470595  10.725465425531914 69.93823529411765  23.87593085106383 69.93823529411765  C 25.656902285026163 69.93823529411765  27.100664893617022 68.52266501784736  27.100664893617022 66.7764705882353  C 27.100664893617022 65.03027615862322  25.656902285026163 63.61470588235294  23.87593085106383 63.61470588235294  C 14.356515957446812 63.61470588235294  6.57845744680851 55.62808823529412  6.57845744680851 45.700147058823525  C 6.57845744680851 36.55  13.221409574468085 28.936470588235295  21.86369680851064 27.899411764705885  C 23.099990922255923 27.752247675524345  24.139354014772298 26.92025539822937  24.533776595744676 25.76205882352941  C 28.377659574468087 14.417647058823528  38.76775265957446 6.702941176470588  50.550930851063825 6.702941176470588  C 65.22347074468085 6.702941176470588  77.34847074468085 18.591176470588238  78.07726063829787 33.72338235294117  C 78.14171800040705 35.09905894273122  79.10691659245803 36.275603643809504  80.46356382978722 36.632205882352935  C 86.25518617021274 38.1435294117647  90.42154255319147 43.58176470588235  90.42154255319147 49.91161764705883  C 90.42154255319147 57.512499999999996  84.4815824468085 63.61470588235294  77.23238031914893 63.61470588235294  C 75.4514088851866 63.61470588235294  74.00764627659572 65.03027615862322  74.00764627659572 66.7764705882353  C 74.00764627659572 68.52266501784736  75.4514088851866 69.93823529411765  77.23238031914893 69.93823529411765  C 88.11263297872338 69.93823529411765  96.87101063829785 60.93985294117647  96.87101063829785 49.91161764705883  C 96.87101063829785 41.54558823529412  91.78882978723402 34.19132352941176  84.34614361702126 31.244558823529413  Z M 59.1158244680851 62.6914705882353  L 51 55.438382352941176  L 51 82.58529411764707  C 51.72473404255319 82.58529411764707  51.72473404255319 82.58529411764707  51.72473404255319 82.58529411764707  C 51.72473404255319 84.33148854725911  50.28097143396234 85.74705882352941  48.5 85.74705882352941  C 46.719028566037665 85.74705882352941  45.275265957446805 84.33148854725911  46 82.58529411764707  L 46 55.438382352941176  L 37.88417553191489 62.6914705882353  C 37.278656660365016 63.28516550122611  36.45739683020593 63.618699830359304  35.601063829787236 63.618699830359304  C 33.81784266886235 63.618699830359304  32.37225629622557 62.20134140265819  32.37225629622557 60.45294117647058  C 32.37225629622557 59.61332977860706  32.71243325610969 58.808106677696706  33.317952127659574 58.214411764705886  L 46.21688829787234 45.56735294117647  C 46.82187589840334 44.97267748094584  47.64333482026267 44.638465779636334  48.5 44.638465779636334  C 49.35666517973732 44.638465779636334  50.17812410159666 44.97267748094584  50.783111702127655 45.56735294117647  L 63.68204787234042 58.214411764705886  C 64.2875667438903 58.808106677696685  64.62774370377443 59.613329778607074  64.62774370377443 60.45294117647058  C 64.62774370377443 62.20134140265819  63.18215733113765 63.618699830359304  61.398936170212764 63.618699830359304  C 60.54260316979406 63.618699830359304  59.721343339634984 63.28516550122611  59.1158244680851 62.6914705882353  Z " fill-rule="evenodd" />
    </mask>
  </defs>
  <g transform="matrix(1 0 0 1 -388 -544 )">
    <path d="M 84.34614361702126 31.244558823529413  C 82.43710106382979 13.848529411764707  68.0096409574468 0.37941176470588234  50.550930851063825 0.37941176470588234  C 36.5749335106383 0.37941176470588234  24.249999999999996 9.074264705882353  19.07752659574468 21.94897058823529  C 8.17147606382979 24.225441176470593  0.12898936170212766 34.09647058823529  0.12898936170212766 45.700147058823525  C 0.12898936170212766 59.055441176470595  10.725465425531914 69.93823529411765  23.87593085106383 69.93823529411765  C 25.656902285026163 69.93823529411765  27.100664893617022 68.52266501784736  27.100664893617022 66.7764705882353  C 27.100664893617022 65.03027615862322  25.656902285026163 63.61470588235294  23.87593085106383 63.61470588235294  C 14.356515957446812 63.61470588235294  6.57845744680851 55.62808823529412  6.57845744680851 45.700147058823525  C 6.57845744680851 36.55  13.221409574468085 28.936470588235295  21.86369680851064 27.899411764705885  C 23.099990922255923 27.752247675524345  24.139354014772298 26.92025539822937  24.533776595744676 25.76205882352941  C 28.377659574468087 14.417647058823528  38.76775265957446 6.702941176470588  50.550930851063825 6.702941176470588  C 65.22347074468085 6.702941176470588  77.34847074468085 18.591176470588238  78.07726063829787 33.72338235294117  C 78.14171800040705 35.09905894273122  79.10691659245803 36.275603643809504  80.46356382978722 36.632205882352935  C 86.25518617021274 38.1435294117647  90.42154255319147 43.58176470588235  90.42154255319147 49.91161764705883  C 90.42154255319147 57.512499999999996  84.4815824468085 63.61470588235294  77.23238031914893 63.61470588235294  C 75.4514088851866 63.61470588235294  74.00764627659572 65.03027615862322  74.00764627659572 66.7764705882353  C 74.00764627659572 68.52266501784736  75.4514088851866 69.93823529411765  77.23238031914893 69.93823529411765  C 88.11263297872338 69.93823529411765  96.87101063829785 60.93985294117647  96.87101063829785 49.91161764705883  C 96.87101063829785 41.54558823529412  91.78882978723402 34.19132352941176  84.34614361702126 31.244558823529413  Z M 59.1158244680851 62.6914705882353  L 51 55.438382352941176  L 51 82.58529411764707  C 51.72473404255319 82.58529411764707  51.72473404255319 82.58529411764707  51.72473404255319 82.58529411764707  C 51.72473404255319 84.33148854725911  50.28097143396234 85.74705882352941  48.5 85.74705882352941  C 46.719028566037665 85.74705882352941  45.275265957446805 84.33148854725911  46 82.58529411764707  L 46 55.438382352941176  L 37.88417553191489 62.6914705882353  C 37.278656660365016 63.28516550122611  36.45739683020593 63.618699830359304  35.601063829787236 63.618699830359304  C 33.81784266886235 63.618699830359304  32.37225629622557 62.20134140265819  32.37225629622557 60.45294117647058  C 32.37225629622557 59.61332977860706  32.71243325610969 58.808106677696706  33.317952127659574 58.214411764705886  L 46.21688829787234 45.56735294117647  C 46.82187589840334 44.97267748094584  47.64333482026267 44.638465779636334  48.5 44.638465779636334  C 49.35666517973732 44.638465779636334  50.17812410159666 44.97267748094584  50.783111702127655 45.56735294117647  L 63.68204787234042 58.214411764705886  C 64.2875667438903 58.808106677696685  64.62774370377443 59.613329778607074  64.62774370377443 60.45294117647058  C 64.62774370377443 62.20134140265819  63.18215733113765 63.618699830359304  61.398936170212764 63.618699830359304  C 60.54260316979406 63.618699830359304  59.721343339634984 63.28516550122611  59.1158244680851 62.6914705882353  Z " fill-rule="nonzero" fill="rgba(0, 82, 217, 1)" stroke="none" transform="matrix(1 0 0 1 388 544 )" class="fill" />
    <path d="M 84.34614361702126 31.244558823529413  C 82.43710106382979 13.848529411764707  68.0096409574468 0.37941176470588234  50.550930851063825 0.37941176470588234  C 36.5749335106383 0.37941176470588234  24.249999999999996 9.074264705882353  19.07752659574468 21.94897058823529  C 8.17147606382979 24.225441176470593  0.12898936170212766 34.09647058823529  0.12898936170212766 45.700147058823525  C 0.12898936170212766 59.055441176470595  10.725465425531914 69.93823529411765  23.87593085106383 69.93823529411765  C 25.656902285026163 69.93823529411765  27.100664893617022 68.52266501784736  27.100664893617022 66.7764705882353  C 27.100664893617022 65.03027615862322  25.656902285026163 63.61470588235294  23.87593085106383 63.61470588235294  C 14.356515957446812 63.61470588235294  6.57845744680851 55.62808823529412  6.57845744680851 45.700147058823525  C 6.57845744680851 36.55  13.221409574468085 28.936470588235295  21.86369680851064 27.899411764705885  C 23.099990922255923 27.752247675524345  24.139354014772298 26.92025539822937  24.533776595744676 25.76205882352941  C 28.377659574468087 14.417647058823528  38.76775265957446 6.702941176470588  50.550930851063825 6.702941176470588  C 65.22347074468085 6.702941176470588  77.34847074468085 18.591176470588238  78.07726063829787 33.72338235294117  C 78.14171800040705 35.09905894273122  79.10691659245803 36.275603643809504  80.46356382978722 36.632205882352935  C 86.25518617021274 38.1435294117647  90.42154255319147 43.58176470588235  90.42154255319147 49.91161764705883  C 90.42154255319147 57.512499999999996  84.4815824468085 63.61470588235294  77.23238031914893 63.61470588235294  C 75.4514088851866 63.61470588235294  74.00764627659572 65.03027615862322  74.00764627659572 66.7764705882353  C 74.00764627659572 68.52266501784736  75.4514088851866 69.93823529411765  77.23238031914893 69.93823529411765  C 88.11263297872338 69.93823529411765  96.87101063829785 60.93985294117647  96.87101063829785 49.91161764705883  C 96.87101063829785 41.54558823529412  91.78882978723402 34.19132352941176  84.34614361702126 31.244558823529413  Z " stroke-width="0" stroke-dasharray="0" stroke="rgba(255, 255, 255, 0)" fill="none" transform="matrix(1 0 0 1 388 544 )" class="stroke" mask="url(#Clip1022)" />
    <path d="M 59.1158244680851 62.6914705882353  L 51 55.438382352941176  L 51 82.58529411764707  C 51.72473404255319 82.58529411764707  51.72473404255319 82.58529411764707  51.72473404255319 82.58529411764707  C 51.72473404255319 84.33148854725911  50.28097143396234 85.74705882352941  48.5 85.74705882352941  C 46.719028566037665 85.74705882352941  45.275265957446805 84.33148854725911  46 82.58529411764707  L 46 55.438382352941176  L 37.88417553191489 62.6914705882353  C 37.278656660365016 63.28516550122611  36.45739683020593 63.618699830359304  35.601063829787236 63.618699830359304  C 33.81784266886235 63.618699830359304  32.37225629622557 62.20134140265819  32.37225629622557 60.45294117647058  C 32.37225629622557 59.61332977860706  32.71243325610969 58.808106677696706  33.317952127659574 58.214411764705886  L 46.21688829787234 45.56735294117647  C 46.82187589840334 44.97267748094584  47.64333482026267 44.638465779636334  48.5 44.638465779636334  C 49.35666517973732 44.638465779636334  50.17812410159666 44.97267748094584  50.783111702127655 45.56735294117647  L 63.68204787234042 58.214411764705886  C 64.2875667438903 58.808106677696685  64.62774370377443 59.613329778607074  64.62774370377443 60.45294117647058  C 64.62774370377443 62.20134140265819  63.18215733113765 63.618699830359304  61.398936170212764 63.618699830359304  C 60.54260316979406 63.618699830359304  59.721343339634984 63.28516550122611  59.1158244680851 62.6914705882353  Z " stroke-width="0" stroke-dasharray="0" stroke="rgba(255, 255, 255, 0)" fill="none" transform="matrix(1 0 0 1 388 544 )" class="stroke" mask="url(#Clip1022)" />
  </g>
</svg>