<?xml version="1.0" encoding="utf-8"?>
<svg version="1.1" xmlns:xlink="http://www.w3.org/1999/xlink" width="19px" height="23px" xmlns="http://www.w3.org/2000/svg">
  <g transform="matrix(1 0 0 1 -1873 -16 )">
    <path d="M 10.291557954999982 1.68797721214282  L 10.291557954999982 0  L 8.708224621666648 0  L 8.708224621666648 1.68797721214282  C 5.1457638724999795 2.096592254999921  2.3748910983333458 5.230402416428635  2.3748910983333458 9.035714285714285  L 2.3748910983333458 16.42857142857143  L 0.9498911933333668 18.399999671428574  C 0.558469660000019 18.94151577857149  0.9308549508333263 19.71428571428571  1.5832241466666328 19.71428571428571  L 5.620739631666694 19.71428571428571  C 5.987494826666672 21.588982857142856  7.584883853333305 23  9.499891288333316 23  C 11.414900227500018 23  13.012288541666626 21.588982857142856  13.379044116666634 19.71428571428571  L 17.41655789166669 19.71428571428571  C 18.068927008333354 19.71428571428571  18.441313391666633 18.94151577857149  18.049890749999967 18.399999671428574  L 16.62489122500002 16.42857142857143  L 16.62489122500002 9.035714285714285  C 16.62489122500002 5.230402810714289  13.854018625000014 2.096592254999921  10.291557954999982 1.68797721214282  Z M 15.833224558333356 18  L 3.1665581291666975 18  L 3.9582246216666497 16.97618992857149  L 3.9582246216666497 9.035714285714285  C 3.9582246216666497 5.860077162142935  6.43931310083336 3.2857142857142856  9.499891288333316 3.2857142857142856  C 12.560469475833363 3.2857142857142856  15.04155789166669 5.860077162142935  15.04155789166669 9.035714285714285  L 15.04155789166669 16.97618992857149  L 15.833224558333356 18  Z M 9.499892032500032 21.357142857142858  C 8.465801911666684 21.357142857142858  7.586069944166662 20.671409028571485  7.260033364166688 19.71428571428571  L 11.739749940833315 19.71428571428571  C 11.413712616666624 20.671409028571485  10.533981409166666 21.357142857142858  9.499892032500032 21.357142857142858  Z " fill-rule="nonzero" fill="#000000" stroke="none" fill-opacity="0.8980392156862745" transform="matrix(1 0 0 1 1873 16 )" />
  </g>
</svg>