<?xml version="1.0" standalone="no"?><!DOCTYPE svg PUBLIC "-//W3C//DTD SVG 1.1//EN" "http://www.w3.org/Graphics/SVG/1.1/DTD/svg11.dtd"><svg t="1744969740943" class="icon" viewBox="0 0 1024 1024" version="1.1" xmlns="http://www.w3.org/2000/svg" p-id="8631" xmlns:xlink="http://www.w3.org/1999/xlink" width="48" height="48"><path d="M245.76 122.88h421.60128a20.48 20.48 0 0 1 14.47936 6.00064l172.31872 172.31872a20.48 20.48 0 0 1 6.00064 14.47936V839.68a61.44 61.44 0 0 1-61.44 61.44H245.76a61.44 61.44 0 0 1-61.44-61.44V184.32a61.44 61.44 0 0 1 61.44-61.44z m40.96 81.92a20.48 20.48 0 0 0-20.48 20.48v573.44a20.48 20.48 0 0 0 20.48 20.48h471.04a20.48 20.48 0 0 0 20.48-20.48V356.63872a20.48 20.48 0 0 0-6.00064-14.47936l-131.35872-131.35872a20.48 20.48 0 0 0-14.47936-6.00064H286.72z" fill="#000000" p-id="8632"></path><path d="M655.36 307.2h122.88v81.92h-163.84a40.96 40.96 0 0 1-40.96-40.96V163.84h81.92v143.36z" fill="#000000" p-id="8633"></path><path d="M778.24 307.2v81.92h-122.88a81.92 81.92 0 0 1-81.92-81.92h204.8z" fill="#000000" p-id="8634"></path><path d="M327.68 491.52m40.96 0l307.2 0q40.96 0 40.96 40.96l0 0q0 40.96-40.96 40.96l-307.2 0q-40.96 0-40.96-40.96l0 0q0-40.96 40.96-40.96Z" fill="#000000" p-id="8635"></path><path d="M327.68 634.88m40.96 0l225.28 0q40.96 0 40.96 40.96l0 0q0 40.96-40.96 40.96l-225.28 0q-40.96 0-40.96-40.96l0 0q0-40.96 40.96-40.96Z" fill="#000000" p-id="8636"></path></svg>