<?xml version="1.0" standalone="no"?><!DOCTYPE svg PUBLIC "-//W3C//DTD SVG 1.1//EN" "http://www.w3.org/Graphics/SVG/1.1/DTD/svg11.dtd"><svg t="1744969539705" class="icon" viewBox="0 0 1024 1024" version="1.1" xmlns="http://www.w3.org/2000/svg" p-id="4190" xmlns:xlink="http://www.w3.org/1999/xlink" width="48" height="48"><path d="M614.4 580.266667h238.933333v68.266666h-238.933333v-68.266666z m0-136.533334h238.933333v68.266667h-238.933333v-68.266667z m0 273.066667h238.933333v68.266667h-238.933333v-68.266667zM34.133333 307.2v546.133333h546.133334V307.2H34.133333z m348.603734 443.733333L307.2 639.829333l-33.9968 50.0736L232.994133 750.933333H136.533333l123.904-179.643733L150.7328 409.6H242.346667l64.955733 94.037333L372.155733 409.6h91.613867l-109.909333 161.621333L477.866667 750.933333h-95.1296zM940.305067 181.521067l-125.166934-130.048C787.8656 23.210667 734.1056 0 695.5008 0H274.944c-38.570667 0-70.075733 32.768-70.075733 72.772267v146.909866h56.081066V72.772267c0-7.918933 6.485333-14.5408 14.062934-14.5408h420.5568c4.164267 0 8.942933 0.546133 13.994666 1.570133v231.389867h222.856534c0.989867 5.256533 1.501867 33.9968 1.501866 38.434133v621.568c0 7.953067-6.485333 14.574933-14.062933 14.574933H274.944a14.574933 14.574933 0 0 1-14.062933-14.5408v-48.810666H204.8v48.810666C204.8 991.300267 236.270933 1024 274.875733 1024h644.9152c38.570667 0 70.075733-32.699733 70.075734-72.772267V329.659733c0.068267-40.0384-22.289067-119.876267-49.5616-148.138666zM750.933333 238.933333V102.4c3.618133 2.491733 6.7584 5.12 9.352534 7.7824l119.330133 119.296c2.6624 2.628267 5.290667 5.802667 7.850667 9.454933h-136.533334z" fill="#107D43" p-id="4191"></path></svg>