<?xml version="1.0" standalone="no"?><!DOCTYPE svg PUBLIC "-//W3C//DTD SVG 1.1//EN" "http://www.w3.org/Graphics/SVG/1.1/DTD/svg11.dtd"><svg t="1744969819411" class="icon" viewBox="0 0 1060 1024" version="1.1" xmlns="http://www.w3.org/2000/svg" p-id="10556" xmlns:xlink="http://www.w3.org/1999/xlink" width="49.6875" height="48"><path d="M0 347.428571h1060.571429v347.428572H0z" fill="#F95F5D" p-id="10557"></path><path d="M1060.571429 347.428571V65.993143C1060.571429 31.085714 1030.107429 0 993.883429 0H66.688C30.482286-0.036571 0 31.085714 0 65.956571V347.428571h1060.571429V347.428571z" fill="#55C7F7" p-id="10558"></path><path d="M0 676.571429v281.435428C0 992.932571 30.208 1024 66.194286 1024h928.182857c35.968 0 66.194286-31.085714 66.194286-65.993143V676.571429H0z" fill="#7ECF3B" p-id="10559"></path><path d="M402.285714 0h256v1024H402.285714z" fill="#FDAF42" p-id="10560"></path><path d="M657.005714 446.153143v152.155428H403.565714V446.171429h253.44v-0.018286zM697.709714 384H362.861714c-5.76 0-15.433143 5.979429-15.433143 15.981714v242.340572c0 5.942857 5.76 15.963429 15.433143 15.963428h334.848c5.76 0 15.433143-5.961143 15.433143-15.963428V399.981714c-3.803429-11.904-9.673143-15.981714-15.433143-15.981714z" fill="#FFFFFF" p-id="10561"></path></svg>