<?xml version="1.0" standalone="no"?><!DOCTYPE svg PUBLIC "-//W3C//DTD SVG 1.1//EN" "http://www.w3.org/Graphics/SVG/1.1/DTD/svg11.dtd"><svg t="1748077466781" class="icon" viewBox="0 0 1024 1024" version="1.1" xmlns="http://www.w3.org/2000/svg" p-id="9498" xmlns:xlink="http://www.w3.org/1999/xlink" width="200" height="200"><path d="M925.3888 434.7264h-11.8528a11.8656 11.8656 0 0 0 0 23.7056h11.8528v11.8528a11.8656 11.8656 0 0 0 23.7056 0v-11.8528h11.8528a11.8656 11.8656 0 0 0 0-23.7056h-11.8528v-11.8528a11.8656 11.8656 0 0 0-23.7056 0v11.8528z" fill="#D8D8D8" p-id="9499"></path><path d="M98.1376 233.2416m-21.3376 0a21.3376 21.3376 0 1 0 42.6752 0 21.3376 21.3376 0 1 0-42.6752 0Z" fill="#D8D8D8" p-id="9500"></path><path d="M799.2192 766.5792l-111.6416-270.2208h-453.5552l-111.6416 270.2208h-2.9184v227.5584h682.6624v-227.5584h-2.9056z" fill="#ECECEC" p-id="9501"></path><path d="M802.1376 994.1376h-682.6624v-227.5584h2.9184l111.6416-270.2208h453.5552l111.6416 270.2208h2.1248l0.7936 6.4v221.1584z m-669.8752-12.8h657.0624l-0.3072-205.9264-110.0032-266.2528h-436.4416l-110.3104 267.008v205.1712z" fill="#CCCCCC" p-id="9502"></path><path d="M235.9936 679.296l-104.256 297.8688 13.4272 4.6976 104.256-297.8688zM685.6064 679.296l104.256 297.8688-13.4272 4.6976-104.256-297.8688z" fill="#CCCCCC" p-id="9503"></path><path d="M389.6832 766.5792h-270.2208v227.5584h682.6624v-227.5584h-270.2208a71.1168 71.1168 0 1 1-142.2208 0z" fill="#FBFBFB" p-id="9504"></path><path d="M802.1376 994.1376h-682.6624v-227.5584h269.9776l0.4864 5.8752c2.9824 36.5824 34.1248 65.2416 70.8736 65.2416 36.7616 0 67.8912-28.6464 70.8736-65.2416l0.4736-5.8752h269.9904v227.5584z m-669.8752-12.8h657.0624v-201.9584h-245.6064c-6.208 40.32-41.5616 71.1168-82.9312 71.1168s-76.7232-30.784-82.9312-71.1168h-245.5936v201.9584z" fill="#CCCCCC" p-id="9505"></path><path d="M745.2416 240.3584l99.5584 42.6624 56.8832-213.3376zM901.6832 69.6832l-270.2208 128 85.3376 42.6752zM745.2416 254.5792v71.104l42.6752-42.6624z" fill="#D8D8D8" p-id="9506"></path><path d="M233.2416 496.3584h455.1168v199.1168h-455.1168z" fill="#E2E2E2" p-id="9507"></path><path d="M688.3456 695.4624h-455.104v-199.104h455.104v199.104z m-442.304-12.8h429.504v-173.504h-429.504v173.504z" fill="#CCCCCC" p-id="9508"></path><path d="M357.312 637.7088a832.32 832.32 0 0 0 25.4336-13.2608 7.1168 7.1168 0 0 0-6.8096-12.4928c-8.0256 4.3648-16.3584 8.7168-24.9984 13.0304a7.104 7.104 0 1 0 6.3744 12.7232z m50.4192-27.52c8.4992-5.0944 16.6144-10.24 24.3328-15.4112a7.104 7.104 0 1 0-7.9232-11.8144c-7.5264 5.0432-15.4368 10.048-23.7312 15.0272a7.1168 7.1168 0 0 0 7.3216 12.1984z m47.936-32.2816a374.5152 374.5152 0 0 0 22.3744-18.4448 7.104 7.104 0 0 0-9.472-10.5984c-6.656 5.952-13.8368 11.8656-21.5296 17.7408a7.1168 7.1168 0 0 0 8.6272 11.3024z m43.2-38.912a232.064 232.064 0 0 0 18.496-22.784 7.1168 7.1168 0 0 0-11.5968-8.2176 216.7552 216.7552 0 0 1-17.3696 21.376c-2.6624 2.8928-2.4704 7.3856 0.4352 10.048s7.3856 2.4704 10.0352-0.4224z m33.9968-48.8832a7.1168 7.1168 0 0 1-12.8128-6.1824c4.0448-8.3968 7.1552-16.8448 9.3312-25.3696a7.1168 7.1168 0 0 1 13.7856 3.52 150.6816 150.6816 0 0 1-10.304 28.032z m13.8624-57.9712a59.008 59.008 0 0 0-10.4448-30.528 7.104 7.104 0 0 0-11.6736 8.1152c4.6464 6.6816 7.36 14.4512 7.9232 23.296a7.1168 7.1168 0 0 0 14.1952-0.8832z m-34.9696-51.5968a94.5536 94.5536 0 0 0-29.2992-9.4336 7.1168 7.1168 0 1 0-2.1632 14.0672 80.0768 80.0768 0 0 1 24.8576 7.9616 7.1168 7.1168 0 1 0 6.6048-12.5952z m-60.8768-9.2672c-12.1472 2.1376-22.5024 6.7072-29.6192 13.4656a7.104 7.104 0 1 0 9.7792 10.3168c4.8896-4.6336 12.7104-8.0896 22.3104-9.7792a7.104 7.104 0 1 0-2.4704-14.0032z m-38.2592 47.36c2.5088 8.5888 7.9488 17.6128 16.3072 27.0208a7.104 7.104 0 0 0 10.624-9.4464c-7.0656-7.9488-11.4304-15.1936-13.2864-21.5552a7.0912 7.0912 0 1 0-13.6448 3.9808z m39.7824 47.7312a97.9456 97.9456 0 0 0 27.7632 12.9792 7.104 7.104 0 1 0 3.8912-13.6704 83.7632 83.7632 0 0 1-23.744-11.1232 7.1168 7.1168 0 0 0-7.9104 11.8144z m58.5856 16.4992a7.104 7.104 0 1 1-0.6144-14.208 105.2416 105.2416 0 0 0 26.2272-4.6848 7.1168 7.1168 0 1 1 4.16 13.6064 119.2704 119.2704 0 0 1-29.7728 5.2864z m58.8416-17.5488a223.7184 223.7184 0 0 0 24.896-15.5776 7.1168 7.1168 0 0 0-8.2816-11.5584c-7.8208 5.6064-15.616 10.4832-23.3216 14.592a7.1168 7.1168 0 1 0 6.7072 12.544z m46.72-32.9088a361.7024 361.7024 0 0 0 21.0432-19.968 7.1168 7.1168 0 0 0-10.1888-9.9328 349.9648 349.9648 0 0 1-20.2112 19.1872 7.1168 7.1168 0 0 0 9.3568 10.7136z m40.9728-41.9328a501.632 501.632 0 0 0 17.9968-22.5536 7.1168 7.1168 0 0 0-11.3664-8.5504 474.7008 474.7008 0 0 1-17.472 21.9008 7.1168 7.1168 0 0 0 10.8416 9.2032z m35.1488-46.7584c5.2992-7.9104 10.4448-16.0256 15.4112-24.32a7.104 7.104 0 1 0-12.1984-7.3088 561.1136 561.1136 0 0 1-15.04 23.7312 7.1168 7.1168 0 1 0 11.8272 7.8976z m29.3248-48.7808c2.816-5.2352 5.5552-10.5216 8.2176-15.8464a7.1168 7.1168 0 0 0-12.7104-6.3616 589.952 589.952 0 0 1-8.0256 15.4752 7.104 7.104 0 0 0 12.5184 6.7328z" fill="#CCCCCC" p-id="9509"></path><path d="M460.8 76.0832c-19.2128 0-34.8416-15.6288-34.8416-34.8416s15.6288-34.8416 34.8416-34.8416 34.8416 15.6288 34.8416 34.8416-15.6288 34.8416-34.8416 34.8416z m0-56.8832c-12.16 0-22.0416 9.8816-22.0416 22.0416s9.8816 22.0416 22.0416 22.0416 22.0416-9.8816 22.0416-22.0416-9.8816-22.0416-22.0416-22.0416z" fill="#D8D8D8" p-id="9510"></path></svg>