<?xml version="1.0" standalone="no"?><!DOCTYPE svg PUBLIC "-//W3C//DTD SVG 1.1//EN" "http://www.w3.org/Graphics/SVG/1.1/DTD/svg11.dtd"><svg height="1024" node-id="1" sillyvg="true" template-height="1024" template-width="1024" version="1.1" viewBox="0 0 1024 1024" width="1024" xmlns="http://www.w3.org/2000/svg" xmlns:xlink="http://www.w3.org/1999/xlink"><defs node-id="107"><linearGradient gradientUnits="objectBoundingBox" id="SVGID_1_" node-id="11" spreadMethod="pad" x1="715.72754" x2="720.5109" y1="-165.78378" y2="-161.03868"><stop offset="0" stop-color="#6aacee"></stop><stop offset="1" stop-color="#c2e7fc"></stop></linearGradient><linearGradient gradientUnits="objectBoundingBox" id="SVGID_2_" node-id="16" spreadMethod="pad" x1="715.7758" x2="710.6342" y1="-120.50109" y2="-120.50109"><stop offset="0" stop-color="#7da4fe"></stop><stop offset="1" stop-color="#d4e3ff"></stop></linearGradient><linearGradient gradientUnits="objectBoundingBox" id="SVGID_3_" node-id="20" spreadMethod="pad" x1="715.1345" x2="710.35126" y1="-117.61869" y2="-122.36379"><stop offset="0" stop-color="#6aacee"></stop><stop offset="1" stop-color="#c2e7fc"></stop></linearGradient><linearGradient gradientUnits="objectBoundingBox" id="SVGID_4_" node-id="25" spreadMethod="pad" x1="717.252" x2="721.53827" y1="-143.15198" y2="-131.49188"><stop offset="0" stop-color="#7da4fe"></stop><stop offset="1" stop-color="#d4e3ff"></stop></linearGradient><linearGradient gradientUnits="objectBoundingBox" id="SVGID_5_" node-id="29" spreadMethod="pad" x1="718.87494" x2="713.33844" y1="-127.23809" y2="-134.47778"><stop offset="0" stop-color="#c2e7fc"></stop><stop offset="1" stop-color="#aad5ff"></stop></linearGradient><linearGradient gradientUnits="objectBoundingBox" id="SVGID_6_" node-id="44" spreadMethod="pad" x1="702.90845" x2="702.90845" y1="-93.44499" y2="-98.58659"><stop offset="0" stop-color="#7bb7f1"></stop><stop offset="0.3929" stop-color="#bfe6ff" stop-opacity="0"></stop></linearGradient><linearGradient gradientUnits="objectBoundingBox" id="SVGID_7_" node-id="50" spreadMethod="pad" x1="609.4363" x2="616.4987" y1="-355.8751" y2="-359.2248"><stop offset="0" stop-color="#5291ff"></stop><stop offset="1" stop-color="#b1ccff"></stop></linearGradient><linearGradient gradientUnits="objectBoundingBox" id="SVGID_8_" node-id="54" spreadMethod="pad" x1="617.8138" x2="613.0305" y1="-356.0614" y2="-360.8066"><stop offset="0" stop-color="#6aacee"></stop><stop offset="1" stop-color="#c2e7fc"></stop></linearGradient><linearGradient gradientUnits="objectBoundingBox" id="SVGID_9_" node-id="59" spreadMethod="pad" x1="618.2231" x2="625.2854" y1="-355.8751" y2="-359.2248"><stop offset="0" stop-color="#5291ff"></stop><stop offset="1" stop-color="#b1ccff"></stop></linearGradient><linearGradient gradientUnits="objectBoundingBox" id="SVGID_10_" node-id="63" spreadMethod="pad" x1="626.6005" x2="621.8172" y1="-356.0614" y2="-360.8066"><stop offset="0" stop-color="#6aacee"></stop><stop offset="1" stop-color="#c2e7fc"></stop></linearGradient><linearGradient gradientUnits="objectBoundingBox" id="SVGID_11_" node-id="68" spreadMethod="pad" x1="613.2842" x2="620.3466" y1="-362.8553" y2="-366.205"><stop offset="0" stop-color="#5291ff"></stop><stop offset="1" stop-color="#b1ccff"></stop></linearGradient><linearGradient gradientUnits="objectBoundingBox" id="SVGID_12_" node-id="72" spreadMethod="pad" x1="621.2737" x2="616.4904" y1="-362.3155" y2="-367.0606"><stop offset="0" stop-color="#6aacee"></stop><stop offset="1" stop-color="#c2e7fc"></stop></linearGradient><linearGradient gradientUnits="objectBoundingBox" id="SVGID_13_" node-id="78" spreadMethod="pad" x1="631.6802" x2="636.3108" y1="-547.6771" y2="-543.9072"><stop offset="0" stop-color="#7da4fe"></stop><stop offset="1" stop-color="#d4e3ff"></stop></linearGradient><linearGradient gradientUnits="objectBoundingBox" id="SVGID_14_" node-id="82" spreadMethod="pad" x1="637.2852" x2="632.5019" y1="-542.5887" y2="-547.3339"><stop offset="0" stop-color="#6aacee"></stop><stop offset="1" stop-color="#c2e7fc"></stop></linearGradient><linearGradient gradientUnits="objectBoundingBox" id="SVGID_15_" node-id="88" spreadMethod="pad" x1="568.2508" x2="572.8813" y1="-508.7844" y2="-505.0145"><stop offset="0" stop-color="#7da4fe"></stop><stop offset="1" stop-color="#d4e3ff"></stop></linearGradient><linearGradient gradientUnits="objectBoundingBox" id="SVGID_16_" node-id="92" spreadMethod="pad" x1="573.8558" x2="569.0724" y1="-503.696" y2="-508.4411"><stop offset="0" stop-color="#6aacee"></stop><stop offset="1" stop-color="#c2e7fc"></stop></linearGradient><linearGradient gradientUnits="objectBoundingBox" id="SVGID_17_" node-id="98" spreadMethod="pad" x1="618.0528" x2="622.6833" y1="-640.2944" y2="-636.5245"><stop offset="0" stop-color="#7da4fe"></stop><stop offset="1" stop-color="#d4e3ff"></stop></linearGradient><linearGradient gradientUnits="objectBoundingBox" id="SVGID_18_" node-id="102" spreadMethod="pad" x1="623.6578" x2="618.8745" y1="-635.206" y2="-639.9512"><stop offset="0" stop-color="#6aacee"></stop><stop offset="1" stop-color="#c2e7fc"></stop></linearGradient></defs><g node-id="348"><path d="M 923.30 746.30 L 923.10 749.80 L 922.30 753.40 L 921.00 756.90 L 919.10 760.50 L 916.50 764.20 L 913.30 768.00 L 909.20 772.00 L 904.70 775.70 L 899.40 779.60 L 893.20 783.50 L 886.00 787.50 L 877.80 791.50 L 868.40 795.70 L 857.90 799.80 L 846.20 804.00 L 833.20 808.10 L 818.80 812.20 L 802.90 816.20 L 783.50 820.60 L 762.60 824.70 L 740.20 828.60 L 717.80 831.90 L 694.20 835.00 L 669.40 837.70 L 644.60 839.90 L 619.00 841.80 L 592.60 843.30 L 566.20 844.30 L 539.30 845.00 L 512.00 845.20 L 484.70 845.00 L 457.80 844.30 L 431.40 843.30 L 405.00 841.80 L 379.40 839.90 L 354.60 837.70 L 329.80 835.00 L 306.20 831.90 L 283.80 828.60 L 261.40 824.70 L 240.50 820.60 L 221.10 816.20 L 205.20 812.20 L 190.80 808.10 L 177.80 804.00 L 166.10 799.80 L 155.60 795.70 L 146.20 791.50 L 138.00 787.50 L 130.80 783.50 L 124.60 779.60 L 119.30 775.70 L 114.80 772.00 L 110.70 768.00 L 107.50 764.20 L 104.90 760.50 L 103.00 756.90 L 101.70 753.40 L 100.90 749.80 L 100.70 746.30 L 100.90 742.80 L 101.70 739.30 L 103.00 735.70 L 104.90 732.10 L 107.50 728.40 L 110.70 724.60 L 114.80 720.70 L 119.30 716.90 L 124.60 713.10 L 130.80 709.20 L 138.00 705.20 L 146.20 701.10 L 155.60 697.00 L 166.10 692.80 L 177.80 688.70 L 190.80 684.60 L 205.20 680.50 L 221.10 676.40 L 240.50 672.10 L 261.40 667.90 L 283.80 664.10 L 306.20 660.70 L 329.80 657.70 L 354.60 655.00 L 379.40 652.80 L 405.00 650.90 L 431.40 649.40 L 457.80 648.30 L 484.70 647.70 L 512.00 647.50 L 539.30 647.70 L 566.20 648.30 L 592.60 649.40 L 619.00 650.90 L 644.60 652.80 L 669.40 655.00 L 694.20 657.70 L 717.80 660.70 L 740.20 664.10 L 762.60 667.90 L 783.50 672.10 L 802.90 676.40 L 818.80 680.50 L 833.20 684.60 L 846.20 688.70 L 857.90 692.80 L 868.40 697.00 L 877.80 701.10 L 886.00 705.20 L 893.20 709.20 L 899.40 713.10 L 904.70 716.90 L 909.20 720.70 L 913.30 724.60 L 916.50 728.40 L 919.10 732.10 L 921.00 735.70 L 922.30 739.30 L 923.10 742.80 L 923.30 746.30 Z" fill="#9fcfff" fill-opacity="0.2" fill-rule="nonzero" group-id="1" node-id="222" stroke="none" target-height="197.70001" target-width="822.6" target-x="100.7" target-y="647.5"></path></g><g node-id="349"><g node-id="353"><g node-id="355"><g node-id="360"><path d="M 461.80 264.60 L 459.20 259.40 L 456.30 254.50 L 453.10 250.00 L 449.60 245.80 L 445.80 242.00 L 440.70 237.50 L 435.20 233.60 L 429.30 230.10 L 423.00 227.10 L 416.50 224.70 L 409.70 222.70 L 402.60 221.10 L 395.10 220.10 L 387.70 219.50 L 380.10 219.40 L 372.20 219.70 L 364.20 220.50 L 356.30 221.80 L 348.30 223.60 L 340.30 225.80 L 332.20 228.50 L 324.20 231.70 L 316.60 235.10 L 309.40 238.90 L 302.50 243.00 L 295.80 247.60 L 289.60 252.30 L 283.80 257.30 L 278.50 262.60 L 273.50 268.20 L 269.10 274.00 L 265.10 279.90 L 261.70 286.00 L 258.80 292.30 L 256.50 298.80 L 254.80 305.30 L 253.70 312.00 L 253.30 317.40 L 253.30 322.90 L 253.80 328.40 L 254.70 334.00 L 256.00 339.70 L 461.80 264.60 Z" fill="url(#SVGID_1_)" fill-rule="evenodd" group-id="2,6,8,13" node-id="233" stroke="none" target-height="120.30002" target-width="208.49998" target-x="253.3" target-y="219.4"></path></g><g node-id="361"><path d="M 352.50 284.50 L 372.10 277.60 L 391.20 271.30 L 409.80 265.70 L 428.50 260.50 L 446.50 256.00 L 463.70 252.10 L 481.00 248.60 L 497.30 245.80 L 512.60 243.70 L 528.00 242.00 L 542.00 241.10 L 554.80 240.70 L 564.60 240.80 L 581.50 242.10 L 588.70 243.20 L 596.10 244.80 L 602.50 246.70 L 608.00 248.90 L 612.70 251.30 L 616.30 253.70 L 619.30 256.30 L 621.70 259.00 L 623.70 262.00 L 625.10 265.10 L 626.00 268.40 L 626.40 271.90 L 626.30 275.60 L 625.70 279.50 L 624.50 283.70 L 622.40 288.50 L 619.60 293.70 L 616.00 299.30 L 611.30 305.40 L 606.50 310.90 L 594.30 322.70 L 586.90 329.10 L 576.90 337.10 L 565.50 345.40 L 552.60 354.00 L 539.60 362.20 L 525.30 370.60 L 509.80 379.10 L 494.20 387.20 L 477.50 395.30 L 459.80 403.30 L 441.90 411.00 L 423.30 418.50 L 403.90 425.90 L 384.20 432.80 L 365.10 439.00 L 346.60 444.60 L 327.80 449.80 L 309.90 454.40 L 292.70 458.30 L 275.30 461.70 L 259.00 464.50 L 243.80 466.70 L 228.40 468.30 L 214.40 469.30 L 201.60 469.60 L 191.80 469.50 L 174.90 468.20 L 167.60 467.20 L 160.20 465.50 L 153.80 463.60 L 148.30 461.50 L 143.70 459.00 L 140.00 456.60 L 137.00 454.00 L 134.60 451.30 L 132.70 448.40 L 131.30 445.20 L 130.30 441.90 L 129.90 438.40 L 130.00 434.70 L 130.70 430.80 L 131.90 426.60 L 133.90 421.80 L 136.70 416.60 L 140.40 411.00 L 145.10 405.00 L 149.90 399.50 L 162.00 387.60 L 169.40 381.20 L 179.50 373.30 L 190.90 365.00 L 203.70 356.30 L 216.80 348.10 L 231.00 339.80 L 246.50 331.30 L 262.20 323.20 L 278.90 315.10 L 296.60 307.00 L 314.40 299.30 L 333.00 291.80 L 352.50 284.50 Z" fill="url(#SVGID_2_)" fill-rule="nonzero" group-id="2,6,8,14" node-id="238" stroke="none" target-height="228.90001" target-width="496.50003" target-x="129.9" target-y="240.7"></path><path d="M 352.50 284.50 L 372.10 277.60 L 391.20 271.30 L 409.80 265.70 L 428.50 260.50 L 446.50 256.00 L 463.70 252.10 L 481.00 248.60 L 497.30 245.80 L 512.60 243.70 L 528.00 242.00 L 542.00 241.10 L 554.80 240.70 L 564.60 240.80 L 581.50 242.10 L 588.70 243.20 L 596.10 244.80 L 602.50 246.70 L 608.00 248.90 L 612.70 251.30 L 616.30 253.70 L 619.30 256.30 L 621.70 259.00 L 623.70 262.00 L 625.10 265.10 L 626.00 268.40 L 626.40 271.90 L 626.30 275.60 L 625.70 279.50 L 624.50 283.70 L 622.40 288.50 L 619.60 293.70 L 616.00 299.30 L 611.30 305.40 L 606.50 310.90 L 594.30 322.70 L 586.90 329.10 L 576.90 337.10 L 565.50 345.40 L 552.60 354.00 L 539.60 362.20 L 525.30 370.60 L 509.80 379.10 L 494.20 387.20 L 477.50 395.30 L 459.80 403.30 L 441.90 411.00 L 423.30 418.50 L 403.90 425.90 L 384.20 432.80 L 365.10 439.00 L 346.60 444.60 L 327.80 449.80 L 309.90 454.40 L 292.70 458.30 L 275.30 461.70 L 259.00 464.50 L 243.80 466.70 L 228.40 468.30 L 214.40 469.30 L 201.60 469.60 L 191.80 469.50 L 174.90 468.20 L 167.60 467.20 L 160.20 465.50 L 153.80 463.60 L 148.30 461.50 L 143.70 459.00 L 140.00 456.60 L 137.00 454.00 L 134.60 451.30 L 132.70 448.40 L 131.30 445.20 L 130.30 441.90 L 129.90 438.40 L 130.00 434.70 L 130.70 430.80 L 131.90 426.60 L 133.90 421.80 L 136.70 416.60 L 140.40 411.00 L 145.10 405.00 L 149.90 399.50 L 162.00 387.60 L 169.40 381.20 L 179.50 373.30 L 190.90 365.00 L 203.70 356.30 L 216.80 348.10 L 231.00 339.80 L 246.50 331.30 L 262.20 323.20 L 278.90 315.10 L 296.60 307.00 L 314.40 299.30 L 333.00 291.80 L 352.50 284.50 Z" fill="url(#SVGID_3_)" fill-rule="nonzero" group-id="2,6,8,14" node-id="240" stroke="none" target-height="228.90001" target-width="496.50003" target-x="129.9" target-y="240.7"></path></g><g node-id="362"><path d="M 606.90 248.40 L 597.80 246.30 L 582.10 244.30 L 563.90 243.70 L 550.50 244.20 L 528.70 246.00 L 513.10 248.00 L 496.90 250.60 L 471.30 255.60 L 453.70 259.70 L 426.60 266.80 L 408.20 272.20 L 380.50 281.10 L 362.00 287.60 L 338.10 296.80 L 314.60 306.40 L 291.80 316.60 L 270.00 327.20 L 249.30 338.00 L 229.90 349.00 L 212.00 360.10 L 195.80 371.20 L 188.40 376.70 L 175.00 387.50 L 163.70 398.00 L 158.80 403.20 L 150.80 413.10 L 147.60 417.80 L 145.00 422.40 L 142.90 426.90 L 141.50 431.10 L 140.70 435.20 L 140.40 439.10 L 140.80 442.80 L 141.70 446.30 L 144.10 451.00 L 147.70 455.20 L 152.50 458.90 L 158.40 462.10 L 165.50 464.70 L 173.70 466.90 L 182.90 468.50 L 193.20 469.50 L 180.80 468.80 L 169.60 467.40 L 159.70 465.30 L 151.20 462.50 L 144.00 459.10 L 140.90 457.10 L 135.90 452.80 L 132.40 447.80 L 131.30 445.10 L 130.00 439.80 L 129.90 436.90 L 130.30 433.10 L 131.10 429.20 L 132.40 425.20 L 134.30 421.00 L 139.60 412.20 L 146.80 402.90 L 156.00 393.20 L 167.00 383.20 L 179.80 372.90 L 194.30 362.50 L 218.80 346.90 L 236.80 336.50 L 256.00 326.30 L 276.20 316.30 L 297.30 306.60 L 319.00 297.40 L 341.30 288.60 L 372.20 277.50 L 401.90 268.00 L 421.50 262.40 L 440.80 257.30 L 469.00 250.90 L 487.10 247.50 L 512.90 243.60 L 529.10 241.90 L 551.50 240.70 L 571.50 241.10 L 583.30 242.30 L 593.80 244.20 L 598.50 245.40 L 606.90 248.40 Z" fill="url(#SVGID_4_)" fill-rule="evenodd" group-id="2,6,8,15" node-id="245" stroke="none" target-height="228.8" target-width="477.00003" target-x="129.9" target-y="240.7"></path><path d="M 606.90 248.40 L 597.80 246.30 L 582.10 244.30 L 563.90 243.70 L 550.50 244.20 L 528.70 246.00 L 513.10 248.00 L 496.90 250.60 L 471.30 255.60 L 453.70 259.70 L 426.60 266.80 L 408.20 272.20 L 380.50 281.10 L 362.00 287.60 L 338.10 296.80 L 314.60 306.40 L 291.80 316.60 L 270.00 327.20 L 249.30 338.00 L 229.90 349.00 L 212.00 360.10 L 195.80 371.20 L 188.40 376.70 L 175.00 387.50 L 163.70 398.00 L 158.80 403.20 L 150.80 413.10 L 147.60 417.80 L 145.00 422.40 L 142.90 426.90 L 141.50 431.10 L 140.70 435.20 L 140.40 439.10 L 140.80 442.80 L 141.70 446.30 L 144.10 451.00 L 147.70 455.20 L 152.50 458.90 L 158.40 462.10 L 165.50 464.70 L 173.70 466.90 L 182.90 468.50 L 193.20 469.50 L 180.80 468.80 L 169.60 467.40 L 159.70 465.30 L 151.20 462.50 L 144.00 459.10 L 140.90 457.10 L 135.90 452.80 L 132.40 447.80 L 131.30 445.10 L 130.00 439.80 L 129.90 436.90 L 130.30 433.10 L 131.10 429.20 L 132.40 425.20 L 134.30 421.00 L 139.60 412.20 L 146.80 402.90 L 156.00 393.20 L 167.00 383.20 L 179.80 372.90 L 194.30 362.50 L 218.80 346.90 L 236.80 336.50 L 256.00 326.30 L 276.20 316.30 L 297.30 306.60 L 319.00 297.40 L 341.30 288.60 L 372.20 277.50 L 401.90 268.00 L 421.50 262.40 L 440.80 257.30 L 469.00 250.90 L 487.10 247.50 L 512.90 243.60 L 529.10 241.90 L 551.50 240.70 L 571.50 241.10 L 583.30 242.30 L 593.80 244.20 L 598.50 245.40 L 606.90 248.40 Z" fill="url(#SVGID_5_)" fill-rule="evenodd" group-id="2,6,8,15" node-id="247" stroke="none" target-height="228.8" target-width="477.00003" target-x="129.9" target-y="240.7"></path></g><g node-id="363"><g node-id="368"><path d="M 303.40 424.20 L 303.00 422.50 L 303.10 420.60 L 303.70 418.50 L 305.00 416.10 L 307.00 413.30 L 313.20 407.00 L 323.50 399.10 L 331.40 394.10 L 340.60 388.90 L 350.20 384.00 L 360.90 379.00 L 371.90 374.30 L 383.50 369.90 L 395.30 365.80 L 406.70 362.30 L 418.00 359.20 L 428.60 356.80 L 439.00 354.90 L 448.20 353.60 L 461.20 353.00 L 469.90 353.80 L 473.30 354.70 L 475.80 355.80 L 477.70 357.00 L 478.90 358.30 L 479.70 359.80 L 480.10 361.60 L 479.90 363.60 L 479.20 365.80 L 477.80 368.40 L 475.40 371.50 L 472.00 375.10 L 467.50 379.10 L 462.60 382.70 L 450.10 390.80 L 435.50 398.70 L 418.50 406.60 L 399.60 414.10 L 389.70 417.50 L 371.30 423.10 L 353.70 427.30 L 338.10 430.00 L 325.10 431.00 L 319.00 430.90 L 314.20 430.40 L 310.40 429.50 L 307.60 428.40 L 305.60 427.20 L 304.20 425.70 L 303.40 424.20 Z" fill="#eff7ff" fill-rule="nonzero" group-id="2,6,8,16,21" node-id="254" stroke="none" target-height="78" target-width="177.1" target-x="303" target-y="353"></path></g></g><g node-id="364"><g node-id="369"><path d="M 295.60 357.00 L 295.00 354.50 L 294.80 352.10 L 295.20 349.60 L 295.90 347.20 L 297.10 345.00 L 298.70 342.90 L 300.60 341.10 L 302.80 339.60 L 305.40 338.30 L 308.20 337.60 L 310.80 337.30 L 313.50 337.40 L 316.00 338.00 L 318.40 338.90 L 320.50 340.20 L 322.30 341.80 L 323.80 343.80 L 324.90 346.10 L 325.60 348.60 L 325.70 351.10 L 325.40 353.50 L 324.70 355.90 L 323.50 358.10 L 321.90 360.20 L 320.00 362.10 L 317.80 363.60 L 315.20 364.80 L 312.40 365.60 L 309.70 365.90 L 307.10 365.70 L 304.50 365.20 L 302.20 364.20 L 300.10 362.90 L 298.20 361.30 L 296.80 359.30 L 295.60 357.00 Z" fill="#ffffff" fill-rule="nonzero" group-id="2,6,8,17,22" node-id="262" stroke="none" target-height="28.600006" target-width="30.900024" target-x="294.8" target-y="337.3"></path></g></g><g node-id="365"><g node-id="370"><path d="M 413.20 314.10 L 412.50 311.40 L 412.40 308.70 L 412.90 305.90 L 414.00 303.20 L 415.70 300.70 L 417.70 298.50 L 420.20 296.80 L 423.00 295.50 L 426.00 294.60 L 429.00 294.40 L 431.90 294.70 L 434.80 295.50 L 437.40 296.80 L 439.50 298.60 L 441.30 300.80 L 442.50 303.20 L 443.20 305.90 L 443.30 308.70 L 442.80 311.50 L 441.70 314.20 L 440.10 316.70 L 438.00 318.80 L 435.50 320.60 L 432.70 321.90 L 429.80 322.70 L 426.80 323.00 L 423.80 322.70 L 420.90 321.90 L 418.40 320.50 L 416.20 318.80 L 414.40 316.60 L 413.20 314.10 Z" fill="#ffffff" fill-rule="nonzero" group-id="2,6,8,18,23" node-id="270" stroke="none" target-height="28.600006" target-width="30.899994" target-x="412.4" target-y="294.4"></path></g></g><g node-id="366"><g node-id="371"><path d="M 193.60 423.80 L 192.60 421.40 L 192.00 419.10 L 191.90 416.60 L 192.20 414.10 L 193.00 411.70 L 194.20 409.40 L 195.70 407.20 L 197.70 405.40 L 200.00 403.70 L 202.80 402.40 L 205.70 401.60 L 208.70 401.30 L 211.60 401.60 L 214.40 402.50 L 216.90 403.90 L 219.00 405.70 L 220.60 407.90 L 221.80 410.50 L 222.30 413.20 L 222.30 416.00 L 221.70 418.80 L 220.60 421.60 L 218.90 424.10 L 216.80 426.20 L 214.30 428.00 L 211.70 429.30 L 209.10 430.00 L 206.50 430.40 L 203.90 430.30 L 201.40 429.80 L 199.10 428.80 L 197.00 427.50 L 195.20 425.90 L 193.60 423.80 Z" fill="#ffffff" fill-rule="nonzero" group-id="2,6,8,19,24" node-id="278" stroke="none" target-height="29.100006" target-width="30.40001" target-x="191.9" target-y="401.3"></path></g></g><path d="M 532.70 294.30 L 532.50 291.70 L 532.80 289.30 L 533.60 286.90 L 534.70 284.70 L 536.30 282.70 L 538.20 280.90 L 540.40 279.50 L 542.90 278.40 L 545.60 277.60 L 548.50 277.40 L 551.20 277.50 L 553.80 278.10 L 556.20 279.10 L 558.30 280.50 L 560.20 282.10 L 561.70 284.10 L 562.80 286.30 L 563.50 288.70 L 563.70 291.30 L 563.40 293.80 L 562.70 296.10 L 561.50 298.30 L 560.00 300.30 L 558.00 302.10 L 555.90 303.60 L 553.40 304.70 L 550.60 305.40 L 547.80 305.70 L 545.10 305.50 L 542.50 304.90 L 540.10 303.90 L 537.90 302.60 L 536.10 300.90 L 534.60 299.00 L 533.40 296.80 L 532.70 294.30 Z" fill="#ffffff" fill-rule="nonzero" group-id="2,6,8,20,25" node-id="286" stroke="none" target-height="28.300018" target-width="31.200012" target-x="532.5" target-y="277.4"></path></g><path d="M 316.70 461.00 L 339.80 454.90 L 362.40 448.30 L 384.70 441.20 L 406.60 433.50 L 428.30 425.30 L 450.00 416.40 L 471.60 406.80 L 493.10 396.60 L 772.80 708.30 L 310.30 825.30 L 316.70 461.00 Z" fill="url(#SVGID_6_)" fill-opacity="0.1965" fill-rule="evenodd" group-id="2,6,9" node-id="293" stroke="none" target-height="428.69998" target-width="462.5" target-x="310.3" target-y="396.6"></path></g><g node-id="354"><g node-id="357"><path d="M 347.50 662.70 L 315.10 662.70 L 347.50 624.10 L 347.50 662.70 Z M 386.90 702.20 L 396.70 702.20 L 400.50 701.80 L 404.20 700.70 L 407.60 698.90 L 411.90 695.00 L 414.90 690.00 L 416.00 686.30 L 416.30 680.50 L 415.60 676.70 L 414.10 673.20 L 410.60 668.50 L 407.60 666.00 L 404.20 664.20 L 400.50 663.10 L 396.70 662.70 L 386.90 662.70 L 386.70 568.80 L 385.30 563.70 L 384.20 561.40 L 380.90 557.30 L 379.00 555.60 L 374.00 552.70 L 370.90 551.70 L 367.70 551.20 L 362.60 551.50 L 358.90 552.60 L 355.50 554.30 L 351.20 558.20 L 259.40 667.80 L 257.50 670.40 L 255.10 675.50 L 254.00 680.10 L 254.00 684.40 L 255.40 690.00 L 257.20 693.40 L 259.70 696.40 L 264.30 699.90 L 269.80 701.80 L 273.60 702.20 L 347.50 702.20 L 347.60 721.40 L 348.30 725.20 L 349.80 728.80 L 351.90 732.00 L 356.20 735.90 L 361.40 738.40 L 365.20 739.10 L 371.00 738.80 L 376.40 736.90 L 381.10 733.40 L 384.50 728.80 L 386.00 725.20 L 386.80 721.40 L 386.90 702.20 Z" fill="url(#SVGID_7_)" fill-rule="evenodd" group-id="2,7,10" node-id="301" stroke="none" target-height="187.89996" target-width="162.29999" target-x="254" target-y="551.2"></path><path d="M 347.50 662.70 L 315.10 662.70 L 347.50 624.10 L 347.50 662.70 Z M 386.90 702.20 L 396.70 702.20 L 400.50 701.80 L 404.20 700.70 L 407.60 698.90 L 411.90 695.00 L 414.90 690.00 L 416.00 686.30 L 416.30 680.50 L 415.60 676.70 L 414.10 673.20 L 410.60 668.50 L 407.60 666.00 L 404.20 664.20 L 400.50 663.10 L 396.70 662.70 L 386.90 662.70 L 386.70 568.80 L 385.30 563.70 L 384.20 561.40 L 380.90 557.30 L 379.00 555.60 L 374.00 552.70 L 370.90 551.70 L 367.70 551.20 L 362.60 551.50 L 358.90 552.60 L 355.50 554.30 L 351.20 558.20 L 259.40 667.80 L 257.50 670.40 L 255.10 675.50 L 254.00 680.10 L 254.00 684.40 L 255.40 690.00 L 257.20 693.40 L 259.70 696.40 L 264.30 699.90 L 269.80 701.80 L 273.60 702.20 L 347.50 702.20 L 347.60 721.40 L 348.30 725.20 L 349.80 728.80 L 351.90 732.00 L 356.20 735.90 L 361.40 738.40 L 365.20 739.10 L 371.00 738.80 L 376.40 736.90 L 381.10 733.40 L 384.50 728.80 L 386.00 725.20 L 386.80 721.40 L 386.90 702.20 Z" fill="url(#SVGID_8_)" fill-rule="evenodd" group-id="2,7,10" node-id="303" stroke="none" target-height="187.89996" target-width="162.29999" target-x="254" target-y="551.2"></path></g><g node-id="358"><path d="M 692.30 662.70 L 659.90 662.70 L 692.30 624.10 L 692.30 662.70 Z M 731.70 702.20 L 741.50 702.20 L 745.40 701.80 L 749.10 700.70 L 752.50 698.90 L 756.80 695.00 L 759.80 690.00 L 760.90 686.30 L 761.20 680.50 L 760.40 676.70 L 758.90 673.20 L 755.50 668.50 L 752.50 666.00 L 749.10 664.20 L 745.40 663.10 L 741.50 662.70 L 731.70 662.70 L 731.50 568.80 L 730.20 563.70 L 729.00 561.40 L 725.80 557.30 L 723.80 555.60 L 718.80 552.70 L 715.70 551.70 L 712.60 551.20 L 707.50 551.50 L 703.80 552.60 L 700.30 554.30 L 696.00 558.20 L 604.20 667.80 L 602.40 670.40 L 600.00 675.50 L 598.90 680.10 L 598.80 684.40 L 600.20 690.00 L 602.00 693.40 L 604.50 696.40 L 609.20 699.90 L 614.60 701.80 L 618.50 702.20 L 692.30 702.20 L 692.40 721.40 L 693.10 725.20 L 694.60 728.80 L 696.80 732.00 L 701.00 735.90 L 706.30 738.40 L 710.10 739.10 L 715.80 738.80 L 719.50 737.70 L 721.30 736.90 L 725.90 733.40 L 729.40 728.80 L 730.80 725.20 L 731.60 721.40 L 731.70 702.20 Z" fill="url(#SVGID_9_)" fill-rule="evenodd" group-id="2,7,11" node-id="308" stroke="none" target-height="187.89996" target-width="162.40002" target-x="598.8" target-y="551.2"></path><path d="M 692.30 662.70 L 659.90 662.70 L 692.30 624.10 L 692.30 662.70 Z M 731.70 702.20 L 741.50 702.20 L 745.40 701.80 L 749.10 700.70 L 752.50 698.90 L 756.80 695.00 L 759.80 690.00 L 760.90 686.30 L 761.20 680.50 L 760.40 676.70 L 758.90 673.20 L 755.50 668.50 L 752.50 666.00 L 749.10 664.20 L 745.40 663.10 L 741.50 662.70 L 731.70 662.70 L 731.50 568.80 L 730.20 563.70 L 729.00 561.40 L 725.80 557.30 L 723.80 555.60 L 718.80 552.70 L 715.70 551.70 L 712.60 551.20 L 707.50 551.50 L 703.80 552.60 L 700.30 554.30 L 696.00 558.20 L 604.20 667.80 L 602.40 670.40 L 600.00 675.50 L 598.90 680.10 L 598.80 684.40 L 600.20 690.00 L 602.00 693.40 L 604.50 696.40 L 609.20 699.90 L 614.60 701.80 L 618.50 702.20 L 692.30 702.20 L 692.40 721.40 L 693.10 725.20 L 694.60 728.80 L 696.80 732.00 L 701.00 735.90 L 706.30 738.40 L 710.10 739.10 L 715.80 738.80 L 719.50 737.70 L 721.30 736.90 L 725.90 733.40 L 729.40 728.80 L 730.80 725.20 L 731.60 721.40 L 731.70 702.20 Z" fill="url(#SVGID_10_)" fill-rule="evenodd" group-id="2,7,11" node-id="310" stroke="none" target-height="187.89996" target-width="162.40002" target-x="598.8" target-y="551.2"></path></g><g node-id="359"><path d="M 505.20 728.30 L 512.70 727.90 L 520.20 726.70 L 527.50 724.70 L 534.60 722.00 L 541.40 718.50 L 547.80 714.30 L 553.90 709.40 L 559.40 704.00 L 564.50 697.90 L 569.00 691.40 L 572.90 684.40 L 576.10 677.00 L 579.60 665.40 L 581.10 657.40 L 581.80 649.30 L 581.80 641.10 L 581.10 633.00 L 579.60 625.00 L 577.40 617.20 L 574.60 609.60 L 571.00 602.50 L 566.80 595.70 L 562.00 589.40 L 556.70 583.60 L 550.90 578.40 L 544.60 573.90 L 538.00 570.10 L 531.00 566.90 L 523.80 564.60 L 516.50 563.00 L 509.00 562.20 L 501.40 562.20 L 494.00 563.00 L 486.60 564.60 L 479.40 566.90 L 472.40 570.10 L 465.80 573.90 L 459.50 578.40 L 453.70 583.60 L 448.40 589.40 L 443.60 595.70 L 439.40 602.50 L 435.90 609.60 L 433.00 617.20 L 430.80 625.00 L 429.30 633.00 L 428.60 641.10 L 428.60 649.30 L 429.30 657.40 L 430.80 665.40 L 433.00 673.20 L 435.90 680.70 L 439.40 687.90 L 443.60 694.70 L 448.40 701.00 L 453.70 706.80 L 459.50 711.90 L 465.80 716.50 L 472.40 720.30 L 479.40 723.40 L 486.60 725.80 L 497.70 727.90 L 505.20 728.30 Z M 538.30 645.20 L 537.90 650.80 L 537.00 656.00 L 535.50 660.80 L 533.50 665.40 L 531.10 669.60 L 528.30 673.30 L 525.00 676.60 L 521.50 679.30 L 517.70 681.50 L 514.70 682.80 L 508.50 684.30 L 505.20 684.50 L 501.90 684.30 L 495.70 682.80 L 492.70 681.50 L 488.90 679.30 L 485.40 676.60 L 482.10 673.30 L 479.30 669.60 L 476.90 665.40 L 474.80 660.80 L 473.40 656.00 L 472.50 650.80 L 472.10 645.20 L 472.50 639.60 L 473.40 634.40 L 474.90 629.60 L 476.90 624.90 L 479.30 620.80 L 482.10 617.10 L 485.40 613.80 L 488.90 611.00 L 492.70 608.80 L 495.70 607.50 L 501.90 606.00 L 505.20 605.80 L 508.50 606.00 L 514.70 607.50 L 517.70 608.80 L 521.50 611.00 L 525.00 613.80 L 528.30 617.10 L 531.10 620.80 L 533.50 624.90 L 535.60 629.60 L 537.00 634.40 L 537.90 639.60 L 538.30 645.20 Z" fill="url(#SVGID_11_)" fill-rule="evenodd" group-id="2,7,12" node-id="315" stroke="none" target-height="166.09998" target-width="153.19998" target-x="428.6" target-y="562.2"></path><path d="M 505.20 728.30 L 512.70 727.90 L 520.20 726.70 L 527.50 724.70 L 534.60 722.00 L 541.40 718.50 L 547.80 714.30 L 553.90 709.40 L 559.40 704.00 L 564.50 697.90 L 569.00 691.40 L 572.90 684.40 L 576.10 677.00 L 579.60 665.40 L 581.10 657.40 L 581.80 649.30 L 581.80 641.10 L 581.10 633.00 L 579.60 625.00 L 577.40 617.20 L 574.60 609.60 L 571.00 602.50 L 566.80 595.70 L 562.00 589.40 L 556.70 583.60 L 550.90 578.40 L 544.60 573.90 L 538.00 570.10 L 531.00 566.90 L 523.80 564.60 L 516.50 563.00 L 509.00 562.20 L 501.40 562.20 L 494.00 563.00 L 486.60 564.60 L 479.40 566.90 L 472.40 570.10 L 465.80 573.90 L 459.50 578.40 L 453.70 583.60 L 448.40 589.40 L 443.60 595.70 L 439.40 602.50 L 435.90 609.60 L 433.00 617.20 L 430.80 625.00 L 429.30 633.00 L 428.60 641.10 L 428.60 649.30 L 429.30 657.40 L 430.80 665.40 L 433.00 673.20 L 435.90 680.70 L 439.40 687.90 L 443.60 694.70 L 448.40 701.00 L 453.70 706.80 L 459.50 711.90 L 465.80 716.50 L 472.40 720.30 L 479.40 723.40 L 486.60 725.80 L 497.70 727.90 L 505.20 728.30 Z M 538.30 645.20 L 537.90 650.80 L 537.00 656.00 L 535.50 660.80 L 533.50 665.40 L 531.10 669.60 L 528.30 673.30 L 525.00 676.60 L 521.50 679.30 L 517.70 681.50 L 514.70 682.80 L 508.50 684.30 L 505.20 684.50 L 501.90 684.30 L 495.70 682.80 L 492.70 681.50 L 488.90 679.30 L 485.40 676.60 L 482.10 673.30 L 479.30 669.60 L 476.90 665.40 L 474.80 660.80 L 473.40 656.00 L 472.50 650.80 L 472.10 645.20 L 472.50 639.60 L 473.40 634.40 L 474.90 629.60 L 476.90 624.90 L 479.30 620.80 L 482.10 617.10 L 485.40 613.80 L 488.90 611.00 L 492.70 608.80 L 495.70 607.50 L 501.90 606.00 L 505.20 605.80 L 508.50 606.00 L 514.70 607.50 L 517.70 608.80 L 521.50 611.00 L 525.00 613.80 L 528.30 617.10 L 531.10 620.80 L 533.50 624.90 L 535.60 629.60 L 537.00 634.40 L 537.90 639.60 L 538.30 645.20 Z" fill="url(#SVGID_12_)" fill-rule="evenodd" group-id="2,7,12" node-id="317" stroke="none" target-height="166.09998" target-width="153.19998" target-x="428.6" target-y="562.2"></path></g></g></g><g node-id="350"><path d="M 850.50 568.60 L 851.50 569.60 L 861.50 575.20 L 862.30 576.30 L 862.40 577.90 L 861.90 578.80 L 861.20 579.50 L 850.90 585.40 L 845.10 595.60 L 843.80 596.70 L 842.20 596.80 L 840.80 595.90 L 834.70 585.40 L 824.50 579.50 L 823.50 578.50 L 823.20 576.90 L 823.50 576.00 L 824.20 575.20 L 834.70 569.10 L 840.60 558.90 L 841.80 557.80 L 843.50 557.70 L 844.90 558.60 L 850.50 568.60 Z" fill="#d8d8d8" fill-rule="nonzero" group-id="3" node-id="324" stroke="none" target-height="39.099976" target-width="39.200012" target-x="823.2" target-y="557.7"></path><path d="M 850.50 568.60 L 851.50 569.60 L 861.50 575.20 L 862.30 576.30 L 862.40 577.90 L 861.90 578.80 L 861.20 579.50 L 850.90 585.40 L 845.10 595.60 L 843.80 596.70 L 842.20 596.80 L 840.80 595.90 L 834.70 585.40 L 824.50 579.50 L 823.50 578.50 L 823.20 576.90 L 823.50 576.00 L 824.20 575.20 L 834.70 569.10 L 840.60 558.90 L 841.80 557.80 L 843.50 557.70 L 844.90 558.60 L 850.50 568.60 Z" fill="url(#SVGID_13_)" fill-rule="nonzero" group-id="3" node-id="326" stroke="none" target-height="39.099976" target-width="39.200012" target-x="823.2" target-y="557.7"></path><path d="M 850.50 568.60 L 851.50 569.60 L 861.50 575.20 L 862.30 576.30 L 862.40 577.90 L 861.90 578.80 L 861.20 579.50 L 850.90 585.40 L 845.10 595.60 L 843.80 596.70 L 842.20 596.80 L 840.80 595.90 L 834.70 585.40 L 824.50 579.50 L 823.50 578.50 L 823.20 576.90 L 823.50 576.00 L 824.20 575.20 L 834.70 569.10 L 840.60 558.90 L 841.80 557.80 L 843.50 557.70 L 844.90 558.60 L 850.50 568.60 Z" fill="url(#SVGID_14_)" fill-rule="nonzero" group-id="3" node-id="328" stroke="none" target-height="39.099976" target-width="39.200012" target-x="823.2" target-y="557.7"></path></g><g node-id="351"><path d="M 161.00 524.50 L 162.00 525.50 L 174.10 532.30 L 174.90 533.40 L 175.00 535.00 L 174.60 535.90 L 173.80 536.60 L 161.40 543.70 L 154.30 556.10 L 153.10 557.20 L 151.40 557.30 L 150.10 556.40 L 142.80 543.70 L 130.40 536.60 L 129.40 535.70 L 129.10 534.00 L 129.40 533.10 L 130.10 532.30 L 142.80 525.00 L 149.90 512.60 L 151.10 511.50 L 152.80 511.40 L 154.10 512.40 L 161.00 524.50 Z" fill="#d8d8d8" fill-rule="nonzero" group-id="4" node-id="333" stroke="none" target-height="45.899994" target-width="45.899994" target-x="129.1" target-y="511.4"></path><path d="M 161.00 524.50 L 162.00 525.50 L 174.10 532.30 L 174.90 533.40 L 175.00 535.00 L 174.60 535.90 L 173.80 536.60 L 161.40 543.70 L 154.30 556.10 L 153.10 557.20 L 151.40 557.30 L 150.10 556.40 L 142.80 543.70 L 130.40 536.60 L 129.40 535.70 L 129.10 534.00 L 129.40 533.10 L 130.10 532.30 L 142.80 525.00 L 149.90 512.60 L 151.10 511.50 L 152.80 511.40 L 154.10 512.40 L 161.00 524.50 Z" fill="url(#SVGID_15_)" fill-rule="nonzero" group-id="4" node-id="335" stroke="none" target-height="45.899994" target-width="45.899994" target-x="129.1" target-y="511.4"></path><path d="M 161.00 524.50 L 162.00 525.50 L 174.10 532.30 L 174.90 533.40 L 175.00 535.00 L 174.60 535.90 L 173.80 536.60 L 161.40 543.70 L 154.30 556.10 L 153.10 557.20 L 151.40 557.30 L 150.10 556.40 L 142.80 543.70 L 130.40 536.60 L 129.40 535.70 L 129.10 534.00 L 129.40 533.10 L 130.10 532.30 L 142.80 525.00 L 149.90 512.60 L 151.10 511.50 L 152.80 511.40 L 154.10 512.40 L 161.00 524.50 Z" fill="url(#SVGID_16_)" fill-rule="nonzero" group-id="4" node-id="337" stroke="none" target-height="45.899994" target-width="45.899994" target-x="129.1" target-y="511.4"></path></g><g node-id="352"><path d="M 733.20 348.20 L 734.10 349.20 L 740.00 352.60 L 740.60 353.70 L 740.60 355.10 L 739.70 356.40 L 733.60 360.00 L 730.20 365.90 L 729.00 367.00 L 727.60 367.10 L 726.40 366.60 L 722.30 360.00 L 716.50 356.60 L 715.60 355.70 L 715.20 354.10 L 715.70 352.80 L 722.30 348.80 L 725.70 343.00 L 727.00 341.80 L 728.30 341.70 L 729.80 342.40 L 733.20 348.20 Z" fill="#d8d8d8" fill-rule="nonzero" group-id="5" node-id="342" stroke="none" target-height="25.399994" target-width="25.399963" target-x="715.2" target-y="341.7"></path><path d="M 733.20 348.20 L 734.10 349.20 L 740.00 352.60 L 740.60 353.70 L 740.60 355.10 L 739.70 356.40 L 733.60 360.00 L 730.20 365.90 L 729.00 367.00 L 727.60 367.10 L 726.40 366.60 L 722.30 360.00 L 716.50 356.60 L 715.60 355.70 L 715.20 354.10 L 715.70 352.80 L 722.30 348.80 L 725.70 343.00 L 727.00 341.80 L 728.30 341.70 L 729.80 342.40 L 733.20 348.20 Z" fill="url(#SVGID_17_)" fill-rule="nonzero" group-id="5" node-id="344" stroke="none" target-height="25.399994" target-width="25.399963" target-x="715.2" target-y="341.7"></path><path d="M 733.20 348.20 L 734.10 349.20 L 740.00 352.60 L 740.60 353.70 L 740.60 355.10 L 739.70 356.40 L 733.60 360.00 L 730.20 365.90 L 729.00 367.00 L 727.60 367.10 L 726.40 366.60 L 722.30 360.00 L 716.50 356.60 L 715.60 355.70 L 715.20 354.10 L 715.70 352.80 L 722.30 348.80 L 725.70 343.00 L 727.00 341.80 L 728.30 341.70 L 729.80 342.40 L 733.20 348.20 Z" fill="url(#SVGID_18_)" fill-rule="nonzero" group-id="5" node-id="346" stroke="none" target-height="25.399994" target-width="25.399963" target-x="715.2" target-y="341.7"></path></g></svg>