<?xml version="1.0" standalone="no"?><!DOCTYPE svg PUBLIC "-//W3C//DTD SVG 1.1//EN" "http://www.w3.org/Graphics/SVG/1.1/DTD/svg11.dtd"><svg t="1754322864605" class="icon" viewBox="0 0 1024 1024" version="1.1" xmlns="http://www.w3.org/2000/svg" p-id="1991" xmlns:xlink="http://www.w3.org/1999/xlink" width="200" height="200"><path d="M512 81.92C273.066667 81.92 77.368889 277.617778 77.368889 516.551111S273.066667 951.182222 512 951.182222s434.631111-193.422222 434.631111-434.631111S750.933333 81.92 512 81.92z m200.248889 587.093333c13.653333 13.653333 13.653333 34.133333 0 47.786667-6.826667 6.826667-15.928889 9.102222-25.031111 9.102222s-18.204444-2.275556-25.031111-9.102222l-152.462223-152.462222-152.462222 152.462222c-6.826667 6.826667-15.928889 9.102222-25.031111 9.102222s-18.204444-2.275556-25.031111-9.102222c-13.653333-13.653333-13.653333-34.133333 0-47.786667l152.462222-152.462222-152.462222-152.462222c-13.653333-13.653333-13.653333-34.133333 0-47.786667s34.133333-13.653333 47.786667 0l152.462222 152.462222 152.462222-152.462222c13.653333-13.653333 34.133333-13.653333 47.786667 0s13.653333 34.133333 0 47.786667l-152.462222 152.462222 157.013333 152.462222z" fill="#aaaaaa" p-id="1992"></path></svg>