<?xml version="1.0" encoding="utf-8"?>
<svg version="1.1" xmlns:xlink="http://www.w3.org/1999/xlink" width="20px" height="20px" xmlns="http://www.w3.org/2000/svg">
  <g transform="matrix(1 0 0 1 -230 -219 )">
    <path d="M 0.277777777777828 10  C 0.277777777777828 15.3694444444444  4.63056666666671 19.7222222222222  10 19.7222222222222  C 15.3694444444444 19.7222222222222  19.7222222222222 15.3694444444444  19.7222222222222 10  C 19.7222222222222 4.63056666666667  15.3694444444444 0.277777777777771  10 0.277777777777771  C 4.63056666666671 0.277777777777771  0.277777777777828 4.63056666666667  0.277777777777828 10  Z M 9.16653333333329 6.11104444444445  L 9.16653333333329 4.44444444444444  L 10.8331111111111 4.44444444444444  L 10.8331111111111 6.11104444444445  L 9.16653333333329 6.11104444444445  Z M 9.31335555555552 15.5552222222222  L 9.31335555555552 7.91666666666667  L 10.7022222222222 7.91666666666667  L 10.7022222222222 15.5552222222222  L 9.31335555555552 15.5552222222222  Z " fill-rule="nonzero" fill="#0052d9" stroke="none" transform="matrix(1 0 0 1 230 219 )" />
  </g>
</svg>