<?xml version="1.0" encoding="utf-8"?>
<svg version="1.1" xmlns:xlink="http://www.w3.org/1999/xlink" width="10px" height="10px" xmlns="http://www.w3.org/2000/svg">
  <g transform="matrix(1 0 0 1 -6 -70 )">
    <path d="M 9.801136363636363 3.8352272727272725  C 9.933712121212123 3.9678030303030285  10 4.128787878787879  10 4.3181818181818175  L 10 5.68181818181818  C 10 5.871212121212123  9.933712121212123 6.032196969696969  9.801136363636363 6.164772727272727  C 9.668560606060607 6.297348484848484  9.507575757575758 6.363636363636365  9.318181818181818 6.363636363636365  L 6.363636363636362 6.363636363636365  L 6.363636363636362 9.31818181818182  C 6.363636363636362 9.507575757575758  6.297348484848485 9.668560606060607  6.164772727272726 9.801136363636363  C 6.032196969696971 9.933712121212121  5.871212121212123 10  5.681818181818182 10  L 4.318181818181818 10  C 4.12878787878788 10  3.9678030303030316 9.933712121212121  3.8352272727272743 9.801136363636363  C 3.7026515151515147 9.668560606060607  3.636363636363637 9.507575757575758  3.636363636363637 9.31818181818182  L 3.636363636363637 6.363636363636365  L 0.6818181818181814 6.363636363636365  C 0.4924242424242426 6.363636363636365  0.3314393939393945 6.297348484848484  0.19886363636363608 6.164772727272727  C 0.0662878787878787 6.032196969696969  0 5.871212121212123  0 5.68181818181818  L 0 4.3181818181818175  C 0 4.128787878787879  0.0662878787878787 3.9678030303030285  0.19886363636363608 3.8352272727272725  C 0.3314393939393945 3.7026515151515142  0.4924242424242426 3.6363636363636367  0.6818181818181814 3.6363636363636367  L 3.636363636363637 3.6363636363636367  L 3.636363636363637 0.6818181818181823  C 3.636363636363637 0.49242424242424176  3.7026515151515147 0.3314393939393934  3.8352272727272743 0.19886363636363624  C 3.9678030303030316 0.06628787878787858  4.12878787878788 0  4.318181818181818 0  L 5.681818181818182 0  C 5.871212121212123 0  6.032196969696971 0.06628787878787858  6.164772727272726 0.19886363636363624  C 6.297348484848485 0.3314393939393934  6.363636363636362 0.49242424242424176  6.363636363636362 0.6818181818181823  L 6.363636363636362 3.6363636363636367  L 9.318181818181818 3.6363636363636367  C 9.507575757575758 3.6363636363636367  9.668560606060607 3.7026515151515142  9.801136363636363 3.8352272727272725  Z " fill-rule="nonzero" fill="#ffffff" stroke="none" transform="matrix(1 0 0 1 6 70 )" />
  </g>
</svg>