<?xml version="1.0" encoding="utf-8"?>
<svg version="1.1" xmlns:xlink="http://www.w3.org/1999/xlink" width="24px" height="23px" xmlns="http://www.w3.org/2000/svg">
  <g transform="matrix(1 0 0 1 -30 -16 )">
    <path d="M 4.074797852307711 6  L 7.114391759999938 2.5943831333333542  L 5.808964209230768 1.2390950616666743  L 1.193579372307725 6.030761555833314  C 0.8330953292308131 6.405013933333343  0.83309531076926 7.01179703916668  1.1935792615384064 7.38604951250001  L 5.808964209230768 12.17771602583333  L 7.114391759999938 10.822428395000008  L 4.074797852307711 8  L 14.769369784615474 8  C 17.828178461538442 7.6667388675000225  20.30783132307701 10.241100826666694  20.30783132307701 13.416738867500023  C 20.30783132307701 16.592376908333353  17.828178461538442 19.166739691666688  14.769369784615474 19.166739691666688  L 5.53860107076931 19.166739691666688  L 5.53860107076931 21.083406358333356  L 14.769369784615474 21.083406358333356  C 18.847780061538497 21.083406358333356  22.15398516923086 17.650921625000024  22.15398516923086 13.416738867500023  C 22.15398516923086 9.182556033333348  18.847780061538497 5.7500722008333565  14.769369784615474 6  L 4.074797852307711 6  Z " fill-rule="nonzero" fill="#5d5d5d" stroke="none" fill-opacity="0.8980392156862745" transform="matrix(1 0 0 1 30 16 )" />
  </g>
</svg>