<?xml version="1.0" encoding="utf-8"?>
<svg version="1.1" xmlns:xlink="http://www.w3.org/1999/xlink" width="89px" height="87px" xmlns="http://www.w3.org/2000/svg">
  <g transform="matrix(1 0 0 1 -130 -34 )">
    <path d="M 87.23011363636363 33.366477272727266  C 88.41003787878789 34.51988636363635  89 35.92045454545455  89 37.56818181818181  L 89 49.431818181818166  C 89 51.07954545454547  88.41003787878789 52.48011363636363  87.23011363636363 53.63352272727273  C 86.0501893939394 54.78693181818181  84.61742424242424 55.363636363636374  82.93181818181819 55  L 56 55  L 56 81.06818181818183  C 56.636363636363626 82.7159090909091  56.046401515151516 84.11647727272728  54.86647727272726 85.26988636363636  C 53.68655303030303 86.42329545454545  52.25378787878789 87  50.56818181818181 87  L 38.43181818181819 87  C 36.746212121212125 87  35.31344696969698 86.42329545454545  34.13352272727274 85.26988636363636  C 32.953598484848484 84.11647727272728  32.36363636363637 82.7159090909091  33 81.06818181818183  L 33 55  L 6.068181818181816 55  C 4.38257575757576 55.363636363636374  2.949810606060611 54.78693181818181  1.769886363636361 53.63352272727273  C 0.5899621212121203 52.48011363636363  0 51.07954545454547  0 49.431818181818166  L 0 37.56818181818181  C 0 35.92045454545455  0.5899621212121203 34.51988636363635  1.769886363636361 33.366477272727266  C 2.949810606060611 32.21306818181817  4.38257575757576 31.636363636363637  6.068181818181816 32  L 33 32  L 33 5.931818181818186  C 32.36363636363637 4.284090909090904  32.953598484848484 2.883522727272723  34.13352272727274 1.7301136363636354  C 35.31344696969698 0.5767045454545436  36.746212121212125 0  38.43181818181819 0  L 50.56818181818181 0  C 52.25378787878789 0  53.68655303030303 0.5767045454545436  54.86647727272726 1.7301136363636354  C 56.046401515151516 2.883522727272723  56.636363636363626 4.284090909090904  56 5.931818181818186  L 56 32  L 82.93181818181819 32  C 84.61742424242424 31.636363636363637  86.0501893939394 32.21306818181817  87.23011363636363 33.366477272727266  Z " fill-rule="nonzero" fill="#ffffff" stroke="none" transform="matrix(1 0 0 1 130 34 )" />
  </g>
</svg>