<?xml version="1.0" encoding="utf-8"?>
<svg version="1.1" xmlns:xlink="http://www.w3.org/1999/xlink" width="20px" height="20px" xmlns="http://www.w3.org/2000/svg">
  <g transform="matrix(1 0 0 1 -19 -16 )">
    <path d="M 7.500063583333372 6.321551399999995  L 7.500063583333372 1.6667297500000209  L 9.166730250000038 1.6667296499999886  L 9.166730250000038 8.333395316666667  C 9.166730149999958 8.793632583333325  8.793634166666683 9.166728600000008  8.333396916666706 9.166728749999985  L 1.6667300500000692 9.16672945000002  L 1.66672994999999 7.5000627833333535  L 6.321552600000095 7.5000619833333335  L 0.2441406333332452 1.4226521000000028  L 1.4226515166666331 0.24414063333333996  L 7.500063583333372 6.321551399999995  Z M 12.500063583333372 13.678573000000018  L 12.500063583333372 18.333395333333346  L 10.833396916666704 18.333395333333346  L 10.833396916666704 11.66672945000002  C 10.833396916666704 11.206492166666681  11.206492950000023 10.833396116666687  11.66673025000004 10.833396116666687  L 18.333396833333307 10.833396116666687  L 18.333396833333307 12.500061983333335  L 13.678574499999929 12.500061983333335  L 19.755985000000084 18.577473999999984  L 18.57747399999994 19.75598333333333  L 12.500063583333372 13.678573000000018  Z " fill-rule="nonzero" fill="#000000" stroke="none" fill-opacity="0.8980392156862745" transform="matrix(1 0 0 1 19 16 )" />
  </g>
</svg>