<?xml version="1.0" encoding="utf-8"?>
<svg version="1.1" xmlns:xlink="http://www.w3.org/1999/xlink" width="22px" height="15px" xmlns="http://www.w3.org/2000/svg">
  <g transform="matrix(1 0 0 1 -835 -17 )">
    <path d="M 0.18376813714284676 7.844787600000017  C 2.2965262257143064 11.804809499999976  6.4453125 14.249816850000002  11.007672987142898 14.249816850000002  C 15.5546875 14.249816850000002  19.7034737428571 11.804809499999976  21.81623179999996 7.844787600000017  L 22 7.499816895000038  L 21.81623179999996 7.154846189999972  C 19.7034737428571 3.2098388699999703  15.5546875 0.7498168950000377  11.007672987142898 0.7498168950000377  C 6.4453125 0.7498168950000377  2.2965262257143064 3.2098388699999703  0.18376813714284676 7.154846189999972  L 0 7.499816895000038  L 0.18376813714284676 7.844787600000017  Z M 11.007672987142898 12.749816850000002  C 7.149693084285673 12.749816850000002  3.6435198171428738 10.754791199999971  1.745221814285677 7.499816895000038  C 3.6435198171428738 4.244842529999971  7.149693084285673 2.2498168950000377  11.007672987142898 2.2498168950000377  C 14.850306900000028 2.2498168950000377  18.356480214285725 4.244842529999971  20.270124128571435 7.499816895000038  C 18.371442571428588 10.754791199999971  14.850306900000028 12.749816850000002  11.007672987142898 12.749816850000002  Z M 6.4740862214286095 7.499816895000038  C 6.4740862214286095 9.885589605000007  8.500139512857102 11.81964105000003  10.99961635142856 11.81964105000003  C 13.49909319000002 11.81964105000003  15.525146528571407 9.885589605000007  15.525146528571407 7.499816895000038  C 15.525146528571407 5.11413574499997  13.49909319000002 3.1800842249999732  10.99961635142856 3.1800842249999732  C 8.500139512857102 3.1800842249999732  6.4740862214286095 5.11413574499997  6.4740862214286095 7.499816895000038  Z M 13.95371791000003 7.499816895000038  C 13.95371791000003 9.05712890999996  12.630894257142893 10.319641109999992  10.99961635142856 10.319641109999992  C 9.367954797142879 10.319641109999992  8.04551479285718 9.05712890999996  8.04551479285718 7.499816895000038  C 8.04551479285718 5.94250488000003  9.367954797142879 4.680084224999973  10.99961635142856 4.680084224999973  C 12.630894257142893 4.680084224999973  13.95371791000003 5.94250488000003  13.95371791000003 7.499816895000038  Z " fill-rule="nonzero" fill="#000000" stroke="none" fill-opacity="0.8980392156862745" transform="matrix(1 0 0 1 835 17 )" />
  </g>
</svg>