<?xml version="1.0" encoding="utf-8"?>
<svg version="1.1" xmlns:xlink="http://www.w3.org/1999/xlink" width="19px" height="19px" xmlns="http://www.w3.org/2000/svg">
  <g transform="matrix(1 0 0 1 -14 -15 )">
    <path d="M 2.375 3.494590342500016  L 2.375 7.916666666666667  L 0.7916666666666666 7.916666666666667  L 0.7916666666666666 1.5833333333333333  C 0.7916666666666666 1.146107914166663  1.146107914166663 0.7916666666666666  1.5833333333333333 0.7916666666666666  L 7.916666666666667 0.7916666666666666  L 7.916666666666667 2.375  L 3.4945810958332593 2.375  L 8.476460895833338 7.35689659916666  L 7.35687319750006 8.476480529166675  L 2.375 3.494590342500016  Z M 16.625 15.505406949999996  L 16.625 11.083333333333334  L 18.208333333333336 11.083333333333334  L 18.208333333333336 17.416666666666664  C 18.208333333333336 17.853892133333332  17.853892133333375 18.208333333333336  17.416666666666664 18.208333333333336  L 11.083333333333334 18.208333333333336  L 11.083333333333334 16.625  L 15.50542056666662 16.625  L 10.523539104166664 11.643092824166652  L 11.643127562500004 10.523510414166674  L 16.625 15.505406949999996  Z " fill-rule="nonzero" fill="#000000" stroke="none" fill-opacity="0.8980392156862745" transform="matrix(1 0 0 1 14 15 )" />
  </g>
</svg>