<?xml version="1.0" encoding="utf-8"?>
<svg version="1.1" xmlns:xlink="http://www.w3.org/1999/xlink" width="11px" height="11px" xmlns="http://www.w3.org/2000/svg">
  <g transform="matrix(1 0 0 1 -257 -59 )">
    <path d="M 5.5001240092857415 1.3446208285714383  C 7.775834628571406 1.3446214571428519  9.627701285714254 3.200687254285707  9.627700499999971 5.498965567857133  L 10.38303608571426 5.498965567857133  C 10.383036792857142 2.7874256850000005  8.196882885714299 0.5892857142857143  5.5001240092857415 0.5892857142857143  C 3.7429978142857134 0.5892857142857143  2.2026436849999738 1.5224890842857073  1.3425536535713962 2.922866909285712  L 1.3425535592856965 1.2905506900000097  L 0.5892857142857143 1.2905506900000097  L 0.5892857142857143 3.7313081221428672  C 0.5892856592856707 3.9482771271428465  0.765173797142901 4.12416526500001  0.9821428571428572 4.124165209999989  L 3.407453382142876 4.124164887857145  L 3.407453382142876 3.36676835785715  L 1.9567855371428777 3.366768546428572  C 2.6785483607143226 2.154511354285723  3.9968646064285576 1.3446203807142751  5.5001240092857415 1.3446208285714383  Z M 0.6172086014285989 5.498924357142848  L 1.372543747142897 5.498924357142848  C 1.3725431107142674 7.797202835714294  3.224409649999968 9.653306142857137  5.5001213928571495 9.653306928571421  C 7.003379758571458 9.653306928571421  8.321695642857101 8.84341755000001  9.0434584428571 7.6311598  L 7.592546814285672 7.6311598  L 7.592546814285672 6.873762877142863  L 10.017857142857142 6.873762877142863  C 10.234826171428592 6.873762877142863  10.410714285714285 7.049651015000006  10.410714285714285 7.266620035714283  L 10.410714285714285 9.707377507142864  L 9.657446857142848 9.707377507142864  L 9.657446857142848 8.075458207142852  C 8.797309635714264 9.47561473571428  7.257081228571426 10.408642435714286  5.50012101571426 10.408642435714286  C 2.803362131428555 10.408642435714286  0.6172071007142839 8.210465214285708  0.6172086014285989 5.498924357142848  Z " fill-rule="nonzero" fill="#0052d9" stroke="none" transform="matrix(1 0 0 1 257 59 )" />
  </g>
</svg>