<?xml version="1.0" encoding="utf-8"?>
<svg version="1.1" xmlns:xlink="http://www.w3.org/1999/xlink" width="20px" height="17px" xmlns="http://www.w3.org/2000/svg">
  <g transform="matrix(1 0 0 1 -1239 -15 )">
    <path d="M 16.692723992784124 9.333096590909092  C 16.853076768891565 9.39749053030303  16.93325315694528 9.514204545454543  16.93325315694528 9.683238636363637  L 16.93325315694528 13.522727272727272  C 16.93325315694528 14.480587121212121  16.594507917418323 15.299597537878789  15.917017438364402 15.979758522727272  C 15.239526959310483 16.659919507575758  14.423732210863902 17  13.469633193024656 17  L 3.4636199639206255 17  C 2.5095209460813797 17  1.6937261976347968 16.659919507575758  1.016235718580878 15.979758522727272  C 0.33874523952695923 15.299597537878789  0 14.480587121212121  0 13.522727272727272  L 0 3.477272727272728  C 0 2.5194128787878767  0.33874523952695923 1.7004024621212115  1.016235718580878 1.020241477272728  C 1.6937261976347968 0.34008049242424077  2.5095209460813797 0  3.4636199639206255 0  L 13.469633193024656 0  C 13.974744437763079 0  14.443776307877329 0.10061553030302939  14.876728803367406 0.30184659090909005  C 14.996993385447986 0.35819128787878673  15.069152134696331 0.45075757575757536  15.093205051112449 0.579545454545454  C 15.117257967528563 0.7163825757575754  15.08117859290439 0.83309659090909  14.98496692723993 0.9296875  L 14.3956704750451 1.521306818181818  C 14.315494086991382 1.6017992424242409  14.223291240729605 1.6420454545454541  14.119061936259772 1.6420454545454541  C 14.095009019843657 1.6420454545454541  14.058929645219482 1.6339962121212115  14.010823812387251 1.617897727272728  C 13.826418119863702 1.569602272727272  13.646021246742833 1.5454545454545459  13.469633193024656 1.5454545454545459  L 3.4636199639206255 1.5454545454545459  C 2.9344558027660854 1.5454545454545459  2.481459210262578 1.7346117424242409  2.1046301864101022 2.112926136363636  C 1.727801162557627 2.4912405303030294  1.5393866506313891 2.946022727272728  1.5393866506313891 3.477272727272728  L 1.5393866506313891 13.522727272727272  C 1.5393866506313891 14.053977272727272  1.727801162557627 14.508759469696967  2.1046301864101022 14.887073863636363  C 2.481459210262578 15.265388257575758  2.9344558027660854 15.454545454545453  3.4636199639206255 15.454545454545453  L 13.469633193024656 15.454545454545453  C 13.998797354179192 15.454545454545453  14.451793946682702 15.265388257575758  14.828622970535177 14.887073863636363  C 15.205451994387655 14.508759469696967  15.393866506313891 14.053977272727272  15.393866506313891 13.522727272727272  L 15.393866506313891 10.455965909090908  C 15.393866506313891 10.351325757575758  15.429945880938064 10.262784090909092  15.50210463018641 10.190340909090908  L 16.271797955502105 9.417613636363637  C 16.351974343555824 9.337121212121211  16.4441771898176 9.296875  16.548406494287434 9.296875  C 16.59651232711966 9.296875  16.644618159951893 9.308948863636363  16.692723992784124 9.333096590909092  Z M 20 3.09090909090909  C 20 3.35653409090909  19.903788334335538 3.5859375  19.711365003006616 3.779119318181818  L 9.921828021647626 13.607244318181818  C 9.729404690318702 13.800426136363637  9.500901984365607 13.897017045454547  9.236319903788335 13.897017045454547  C 8.971737823211065 13.897017045454547  8.743235117257967 13.800426136363637  8.550811785929044 13.607244318181818  L 3.3794347564642213 8.415482954545453  C 3.1870114251352977 8.222301136363637  3.090799759470836 7.992897727272728  3.090799759470836 7.727272727272728  C 3.090799759470836 7.461647727272726  3.1870114251352977 7.232244318181817  3.3794347564642213 7.0390625  L 4.702345159350571 5.7109375  C 4.894768490679494 5.517755681818182  5.123271196632592 5.421164772727272  5.387853277209862 5.421164772727272  C 5.652435357787132 5.421164772727272  5.880938063740229 5.517755681818182  6.073361395069153 5.7109375  L 9.236319903788335 8.886363636363637  L 17.017438364401684 1.074573863636364  C 17.20986169573061 0.881392045454546  17.438364401683703 0.784801136363636  17.702946482260977 0.784801136363636  C 17.967528562838243 0.784801136363636  18.19603126879134 0.881392045454546  18.388454600120266 1.074573863636364  L 19.711365003006616 2.402698863636364  C 19.903788334335538 2.595880681818182  20 2.82528409090909  20 3.09090909090909  Z " fill-rule="nonzero" fill="#48c79c" stroke="none" transform="matrix(1 0 0 1 1239 15 )" />
  </g>
</svg>