<?xml version="1.0" encoding="utf-8"?>
<svg version="1.1" xmlns:xlink="http://www.w3.org/1999/xlink" width="18px" height="18px" xmlns="http://www.w3.org/2000/svg">
  <g transform="matrix(1 0 0 1 -1324 -65 )">
    <path d="M 7.5 13.9453125  C 7.703125 13.9453125  7.87890625 13.871093750000002  8.02734375 13.72265625  L 15.22265625 6.527343750000001  C 15.37109375 6.378906249999998  15.4453125 6.203124999999998  15.4453125 6.000000000000001  C 15.4453125 5.796874999999999  15.37109375 5.621093749999999  15.22265625 5.472656250000001  L 14.02734375 4.277343750000001  C 13.878906250000002 4.128906249999998  13.703125000000002 4.054687499999999  13.5 4.054687499999999  C 13.296875 4.054687499999999  13.12109375 4.128906249999998  12.97265625 4.277343750000001  L 7.5 9.750000000000002  L 5.02734375 7.27734375  C 4.878906250000001 7.12890625  4.703125000000001 7.054687500000001  4.5 7.054687500000001  C 4.296875 7.054687500000001  4.12109375 7.12890625  3.97265625 7.27734375  L 2.77734375 8.47265625  C 2.6289062500000004 8.62109375  2.5546875 8.796875  2.5546875 9  C 2.5546875 9.203124999999998  2.6289062500000004 9.378906249999998  2.77734375 9.52734375  L 6.97265625 13.72265625  C 7.121093750000001 13.871093750000002  7.296875000000001 13.9453125  7.5 13.9453125  Z M 17.009765625 0.9902343750000007  C 17.669921875 1.6503906249999984  18 2.4453124999999973  18 3.375  L 18 14.625  C 18 15.554687499999998  17.669921875 16.349609375  17.009765625 17.009765625  C 16.349609375 17.669921875  15.554687500000002 18  14.625 18  L 3.375 18  C 2.4453125 18  1.6503906250000002 17.669921875  0.990234375 17.009765625  C 0.33007812499999994 16.349609375  0 15.554687499999998  0 14.625  L 0 3.375  C 0 2.4453124999999973  0.33007812499999994 1.6503906249999984  0.990234375 0.9902343750000007  C 1.6503906250000002 0.3300781249999989  2.4453125 0  3.375 0  L 14.625 0  C 15.554687500000002 0  16.349609375 0.3300781249999989  17.009765625 0.9902343750000007  Z " fill-rule="nonzero" fill="#6f83e9" stroke="none" transform="matrix(1 0 0 1 1324 65 )" />
  </g>
</svg>