<?xml version="1.0" standalone="no"?><!DOCTYPE svg PUBLIC "-//W3C//DTD SVG 1.1//EN" "http://www.w3.org/Graphics/SVG/1.1/DTD/svg11.dtd"><svg t="1745720099356" class="icon" viewBox="0 0 1024 1024" version="1.1" xmlns="http://www.w3.org/2000/svg" p-id="5603" xmlns:xlink="http://www.w3.org/1999/xlink" width="200" height="200"><path d="M224.10193437 512.00048a29.85071625 29.85071625 0 0 0 9.88624969 22.0760925L695.09056906 982.31723375a31.67439375 31.67439375 0 0 0 45.59193 0L790.11375031 934.22974531A29.94669937 29.94669937 0 0 0 800 912.15365281c0-8.35052156-3.2634225-15.74121375-9.88624969-22.17207562L401.19058906 512.00048001 790.11375031 134.01938281a29.94669937 29.94669937 0 0 0 9.88624969-22.0760925c0-8.35052156-3.2634225-15.74121375-9.88624968-22.0760925l-49.43125126-48.18347157a31.67439375 31.67439375 0 0 0-45.59193001 1e-8l-461.10238499 448.24066125A30.0426825 30.0426825 0 0 0 224.10193437 512.00048z" p-id="5604"></path></svg>